<?xml version="1.0" encoding="UTF-8" standalone="no"?>
<svg
   xmlns:dc="http://purl.org/dc/elements/1.1/"
   xmlns:cc="http://creativecommons.org/ns#"
   xmlns:rdf="http://www.w3.org/1999/02/22-rdf-syntax-ns#"
   xmlns:svg="http://www.w3.org/2000/svg"
   xmlns="http://www.w3.org/2000/svg"
   xmlns:xlink="http://www.w3.org/1999/xlink"
   xmlns:sodipodi="http://sodipodi.sourceforge.net/DTD/sodipodi-0.dtd"
   xmlns:inkscape="http://www.inkscape.org/namespaces/inkscape"
   version="1.1"
   id="svg2"
   width="2600"
   height="1408"
   viewBox="0 0 2600 1408"
   sodipodi:docname="spectrograph.svg"
   inkscape:version="1.0.1 (3bc2e813f5, 2020-09-07)"
   inkscape:export-filename="/home/ana/web/react_hack/via_test/via/public/img/viaspec_optics_med.png"
   inkscape:export-xdpi="96"
   inkscape:export-ydpi="96">
  <metadata
     id="metadata8">
    <rdf:RDF>
      <cc:Work
         rdf:about="">
        <dc:format>image/svg+xml</dc:format>
        <dc:type
           rdf:resource="http://purl.org/dc/dcmitype/StillImage" />
        <dc:title />
      </cc:Work>
    </rdf:RDF>
  </metadata>
  <defs
     id="defs6">
    <linearGradient
       inkscape:collect="always"
       id="linearGradient2110">
      <stop
         style="stop-color:#000000;stop-opacity:0"
         offset="0"
         id="stop2090" />
      <stop
         style="stop-color:#000000;stop-opacity:0"
         offset="0.13455842"
         id="stop2120" />
      <stop
         style="stop-color:#000000;stop-opacity:0.055"
         offset="0.2727882"
         id="stop2092" />
      <stop
         style="stop-color:#000000;stop-opacity:0.102"
         offset="0.38857511"
         id="stop2094" />
      <stop
         style="stop-color:#000000;stop-opacity:0.2"
         offset="0.5059219"
         id="stop2096" />
      <stop
         style="stop-color:#000000;stop-opacity:0.302"
         offset="0.59330624"
         id="stop2116" />
      <stop
         style="stop-color:#000000;stop-opacity:0.4"
         offset="0.68918884"
         id="stop2098" />
      <stop
         style="stop-color:#000000;stop-opacity:0.502"
         offset="0.76767731"
         id="stop2100" />
      <stop
         style="stop-color:#000000;stop-opacity:0.6"
         offset="0.83834124"
         id="stop2102" />
      <stop
         style="stop-color:#000000;stop-opacity:0.698"
         offset="0.89329505"
         id="stop2104" />
      <stop
         style="stop-color:#000000;stop-opacity:0.8"
         offset="0.94278944"
         id="stop2106" />
      <stop
         style="stop-color:#000000;stop-opacity:0.898"
         offset="0.9769488"
         id="stop2112" />
      <stop
         style="stop-color:#000000;stop-opacity:1"
         offset="1"
         id="stop2108" />
    </linearGradient>
    <radialGradient
       inkscape:collect="always"
       xlink:href="#linearGradient1697"
       id="radialGradient1699"
       cx="1948.9918"
       cy="880.89673"
       fx="1948.9918"
       fy="880.89673"
       r="1300"
       gradientTransform="matrix(-0.35718348,-0.65390024,1.0351181,-0.56541816,1880.2264,2094.3532)"
       gradientUnits="userSpaceOnUse" />
    <linearGradient
       inkscape:collect="always"
       id="linearGradient1697">
      <stop
         style="stop-color:#000000;stop-opacity:0"
         offset="0"
         id="stop1693" />
      <stop
         style="stop-color:#000000;stop-opacity:0;"
         offset="0.11505494"
         id="stop2074" />
      <stop
         style="stop-color:#000000;stop-opacity:0;"
         offset="0.25079709"
         id="stop2076" />
      <stop
         style="stop-color:#000000;stop-opacity:0;"
         offset="0.39882603"
         id="stop2078" />
      <stop
         style="stop-color:#000000;stop-opacity:0;"
         offset="0.52282888"
         id="stop2080" />
      <stop
         style="stop-color:#000000;stop-opacity:0"
         offset="0.65361851"
         id="stop1701" />
      <stop
         style="stop-color:#000000;stop-opacity:0.21176471;"
         offset="0.72787774"
         id="stop2082" />
      <stop
         style="stop-color:#000000;stop-opacity:0.5254902;"
         offset="0.83708221"
         id="stop2084" />
      <stop
         style="stop-color:#000000;stop-opacity:0.78823529;"
         offset="0.92807436"
         id="stop2086" />
      <stop
         style="stop-color:#000000;stop-opacity:1"
         offset="1"
         id="stop1695" />
    </linearGradient>
    <radialGradient
       inkscape:collect="always"
       xlink:href="#linearGradient2110"
       id="radialGradient2118"
       gradientUnits="userSpaceOnUse"
       gradientTransform="matrix(-0.30427502,-0.4029476,0.41696186,-0.3148575,2053.3936,1527.192)"
       cx="1770.6455"
       cy="334.6485"
       fx="1770.6455"
       fy="334.6485"
       r="1300" />
    <filter
       inkscape:collect="always"
       style="color-interpolation-filters:sRGB"
       id="filter1627"
       x="-0.19067343"
       width="1.3813469"
       y="-0.21866512"
       height="1.4373302">
      <feGaussianBlur
         inkscape:collect="always"
         stdDeviation="101.76694"
         id="feGaussianBlur1629" />
    </filter>
  </defs>
  <sodipodi:namedview
     pagecolor="#ffffff"
     bordercolor="#666666"
     borderopacity="1"
     objecttolerance="10"
     gridtolerance="10"
     guidetolerance="10"
     inkscape:pageopacity="0"
     inkscape:pageshadow="2"
     inkscape:window-width="1920"
     inkscape:window-height="1127"
     id="namedview4"
     showgrid="false"
     inkscape:snap-bbox="true"
     inkscape:zoom="0.51615385"
     inkscape:cx="1300"
     inkscape:cy="704"
     inkscape:window-x="0"
     inkscape:window-y="0"
     inkscape:window-maximized="1"
     inkscape:current-layer="layer4"
     showguides="false"
     inkscape:document-rotation="0" />
  <g
     inkscape:groupmode="layer"
     id="layer4"
     inkscape:label="background"
     style="display:inline">
    <rect
       style="fill:#131820;fill-opacity:1;stroke:none;stroke-width:3;stroke-dasharray:36, 36;paint-order:markers fill stroke"
       id="rect878"
       width="2600"
       height="1408"
       x="0"
       y="0" />
  </g>
  <g
     inkscape:groupmode="layer"
     id="layer2"
     inkscape:label="spectrograph"
     style="display:none">
    <image
       sodipodi:absref="/home/ana/web/react_hack/via_test/via/img/docs/viaspec_optics_invert.png"
       xlink:href="viaspec_optics_invert.png"
       width="1379.9954"
       height="666.64087"
       preserveAspectRatio="none"
       id="image1035"
       x="974.65265"
       y="655.7179"
       style="display:inline;stroke-width:2.05508"
       transform="rotate(-9.3960982)" />
  </g>
  <g
     inkscape:groupmode="layer"
     id="g1290"
     inkscape:label="svg spectrograph slightly blurred"
     style="filter:url(#filter1627)">
    <g
       id="g1288"
       transform="matrix(1.1463786,0,0,1.1464016,389.11111,67.796148)"
       style="stroke:#687a8e;stroke-width:8.72303;stroke-miterlimit:4;stroke-dasharray:none;stroke-opacity:1">
      <path
         style="fill:none;stroke:#687a8e;stroke-width:8.72303;stroke-linecap:butt;stroke-linejoin:miter;stroke-miterlimit:4;stroke-dasharray:none;stroke-opacity:1"
         d="m 1794.5989,56.334314 h 10.2208 c 28.1126,162.237116 21.1778,293.869046 0.8578,442.787076 h -11.1285 c 22.2695,-145.99503 26.5837,-292.887 0.05,-442.787076 z"
         id="path1214"
         sodipodi:nodetypes="ccccc" />
      <path
         style="fill:none;stroke:#687a8e;stroke-width:8.72303;stroke-linecap:butt;stroke-linejoin:miter;stroke-miterlimit:4;stroke-dasharray:none;stroke-opacity:1"
         d="M 873.10967,727.94833 V 205.17545 l 938.24103,0.97445 -756.3559,71.81754 757.3162,-48.01287 H 847.67564 v 512.94111"
         id="path1216"
         sodipodi:nodetypes="ccccccc" />
      <path
         style="fill:none;stroke:#687a8e;stroke-width:8.72303;stroke-linecap:butt;stroke-linejoin:miter;stroke-miterlimit:4;stroke-dasharray:none;stroke-opacity:1"
         d="M 823.6838,758.93036 V 254.73134 h 989.171 l -757.86,23.2361 757.8246,-0.20228 H 800.46153 l -1.49446,497.22667"
         id="path1218"
         sodipodi:nodetypes="ccccccc" />
      <path
         style="fill:none;stroke:#687a8e;stroke-width:8.72303;stroke-linecap:butt;stroke-linejoin:miter;stroke-miterlimit:4;stroke-dasharray:none;stroke-opacity:1"
         d="M 776.29135,790.16766 V 301.61507 H 1812.546 l -757.5512,-23.64763 756.6809,48.47436 H 750.76031 v 480.90833"
         id="path1220"
         sodipodi:nodetypes="ccccccc" />
      <path
         style="fill:none;stroke:#687a8e;stroke-width:8.72303;stroke-linecap:butt;stroke-linejoin:miter;stroke-miterlimit:4;stroke-dasharray:none;stroke-opacity:1"
         d="M 726.97958,822.39635 873.10967,727.94833"
         id="path1222"
         sodipodi:nodetypes="cc" />
      <path
         style="fill:none;stroke:#687a8e;stroke-width:8.72303;stroke-linecap:butt;stroke-linejoin:miter;stroke-miterlimit:4;stroke-dasharray:none;stroke-opacity:1"
         d="M 726.97958,350.45594 V 822.39635"
         id="path1224" />
      <path
         style="fill:none;stroke:#687a8e;stroke-width:8.72303;stroke-linecap:butt;stroke-linejoin:miter;stroke-miterlimit:4;stroke-dasharray:none;stroke-opacity:1"
         d="m 1054.9948,277.96744 755.4389,72.4885 H 726.97958"
         id="path1226"
         sodipodi:nodetypes="ccc" />
      <path
         style="fill:none;stroke:#687a8e;stroke-width:8.72303;stroke-linecap:butt;stroke-linejoin:miter;stroke-miterlimit:4;stroke-dasharray:none;stroke-opacity:1"
         d="m 1052.526,203.93539 c 3.212,48.93169 3.0327,99.53159 0.2825,146.4254"
         id="path1228"
         sodipodi:nodetypes="cc" />
      <path
         style="fill:none;stroke:#687a8e;stroke-width:8.72303;stroke-linecap:butt;stroke-linejoin:miter;stroke-miterlimit:4;stroke-dasharray:none;stroke-opacity:1"
         d="m 884.79567,184.60945 3.9175,3.73677 -179.24922,179.22591 -3.35925,-4.25936 z"
         id="path1230"
         sodipodi:nodetypes="ccccc" />
      <path
         style="fill:none;stroke:#687a8e;stroke-width:8.72303;stroke-linecap:butt;stroke-linejoin:miter;stroke-miterlimit:4;stroke-dasharray:none;stroke-opacity:1"
         d="m 984.9204,968.1453 -15.654,-7.6151 c -4.4037,-100.59144 34.5521,-147.4392 79.1499,-187.29371 l 14.7389,8.21746 c -38.5482,57.6147 -64.0298,120.06602 -78.2348,186.69135 z"
         id="path1232"
         sodipodi:nodetypes="ccccc" />
      <path
         style="fill:none;stroke:#687a8e;stroke-width:8.72303;stroke-linecap:butt;stroke-linejoin:miter;stroke-miterlimit:4;stroke-dasharray:none;stroke-opacity:1"
         d="M 943.59598,948.51008 1020.091,764.91216 981.3673,748.40164 c 7.9924,74.73961 -20.8907,134.42477 -74.95236,184.35233 z"
         id="path1234"
         sodipodi:nodetypes="ccccc" />
      <path
         style="fill:none;stroke:#687a8e;stroke-width:8.72303;stroke-linecap:butt;stroke-linejoin:miter;stroke-miterlimit:4;stroke-dasharray:none;stroke-opacity:1"
         d="m 968.6275,743.09464 11.2777,4.94848 c 7.511,67.8594 -16.7455,131.1006 -75.47897,184.00898 l -12.9392,-4.78839 c 5.68365,-70.86985 30.5037,-132.68237 77.14047,-184.16907 z"
         id="path1236"
         sodipodi:nodetypes="ccccc" />
      <path
         style="fill:none;stroke:#687a8e;stroke-width:8.72303;stroke-linecap:butt;stroke-linejoin:miter;stroke-miterlimit:4;stroke-dasharray:none;stroke-opacity:1"
         d="m 1143.2565,1020.6778 9.707,2.058 c 5.1554,-64.91973 30.1811,-117.0021 66.2335,-161.96039 l -6.7782,-4.97977 c -77.1015,36.07579 -91.3718,94.71061 -69.1623,164.88216 z"
         id="path1238"
         sodipodi:nodetypes="ccccc" />
      <path
         style="fill:none;stroke:#687a8e;stroke-width:8.72303;stroke-linecap:butt;stroke-linejoin:miter;stroke-miterlimit:4;stroke-dasharray:none;stroke-opacity:1"
         d="m 1204.1774,1021.9383 18.8457,8.7161 c 7.6167,-44.8126 25.1943,-86.44749 52.5081,-124.97651 l -19.5329,-8.75735 c -38.7951,31.12911 -59.7962,70.97556 -51.8209,125.01776 z"
         id="path1240"
         sodipodi:nodetypes="ccccc" />
      <path
         style="fill:none;stroke:#687a8e;stroke-width:8.72303;stroke-linecap:butt;stroke-linejoin:miter;stroke-miterlimit:4;stroke-dasharray:none;stroke-opacity:1"
         d="m 1258.8271,1016.4163 17.7282,8.9224 c 7.8747,-27.2151 18.5443,-53.2188 32.565,-77.77026 l -17.7675,-8.71217 c -4.6376,30.27633 -11.7125,58.61163 -32.5257,77.56003 z"
         id="path1242"
         sodipodi:nodetypes="ccccc" />
      <path
         style="fill:none;stroke:#687a8e;stroke-width:8.72303;stroke-linecap:butt;stroke-linejoin:miter;stroke-miterlimit:4;stroke-dasharray:none;stroke-opacity:1"
         d="m 1288.2979,1019.7743 25.8712,-61.81311"
         id="path1244" />
      <path
         style="fill:none;stroke:#687a8e;stroke-width:8.72303;stroke-linecap:butt;stroke-linejoin:miter;stroke-miterlimit:4;stroke-dasharray:none;stroke-opacity:1"
         d="m 871.09531,727.94833 88.08149,25.98051 21.7021,10.29125 35.0091,13.78232 19.1812,7.46247 19.7768,10.00012 136.0536,70.06437 16.4731,13.42717 36.3074,28.53647 18.7285,17.8704 26.7984,25.57037 19.9535,19.03932"
         id="path1246"
         sodipodi:nodetypes="cccccccccccc" />
      <path
         style="fill:none;stroke:#687a8e;stroke-width:8.72303;stroke-linecap:butt;stroke-linejoin:miter;stroke-miterlimit:4;stroke-dasharray:none;stroke-opacity:1"
         d="m 847.67565,742.89568 100.46765,28.92616 32.8726,14.42902 24.8916,10.75838 36.3814,17.29493 136.2735,61.65735 80.8465,54.73098 49.7516,39.2806"
         id="path1248"
         sodipodi:nodetypes="cccccccc" />
      <path
         style="fill:none;stroke:#687a8e;stroke-width:8.72303;stroke-linecap:butt;stroke-linejoin:miter;stroke-miterlimit:4;stroke-dasharray:none;stroke-opacity:1"
         d="m 823.68381,758.9304 109.21453,33.52448 101.29016,39.82135 134.6474,52.59895 25.0704,13.78449 35.916,23.31239 25.9749,14.82571 53.3633,33.17533"
         id="path1250"
         sodipodi:nodetypes="cccccccc" />
      <path
         style="fill:none;stroke:#687a8e;stroke-width:8.72303;stroke-linecap:butt;stroke-linejoin:miter;stroke-miterlimit:4;stroke-dasharray:none;stroke-opacity:1"
         d="m 798.96707,774.99185 122.79888,37.44617 50.31975,17.84205 16.1266,6.52394 37.6428,12.42121 131.8489,46.61179 30.7219,12.2681 64.6005,34.20374 56.1341,27.66425"
         id="path1252"
         sodipodi:nodetypes="ccccccccc" />
      <path
         style="fill:none;stroke:#687a8e;stroke-width:8.72303;stroke-linecap:butt;stroke-linejoin:miter;stroke-miterlimit:4;stroke-dasharray:none;stroke-opacity:1"
         d="m 776.29135,790.16766 137.59413,41.22447 233.74892,76.31943 102.7766,39.64441 58.7495,22.61713"
         id="path1254"
         sodipodi:nodetypes="ccccc" />
      <path
         style="fill:none;stroke:#687a8e;stroke-width:8.72303;stroke-linecap:butt;stroke-linejoin:miter;stroke-miterlimit:4;stroke-dasharray:none;stroke-opacity:1"
         d="M 750.76032,807.35013 905.58619,852.9218 1309.1605,969.9731"
         id="path1256"
         sodipodi:nodetypes="ccc" />
      <path
         style="fill:none;stroke:#687a8e;stroke-width:8.72303;stroke-linecap:butt;stroke-linejoin:miter;stroke-miterlimit:4;stroke-dasharray:none;stroke-opacity:1"
         d="m 726.97958,822.39635 172.67398,52.5571 42.05082,13.80758 22.68542,6.98221 344.7707,74.22986"
         id="path1258"
         sodipodi:nodetypes="ccccc" />
      <path
         style="fill:none;stroke:#687a8e;stroke-width:8.72303;stroke-linecap:butt;stroke-linejoin:miter;stroke-miterlimit:4;stroke-dasharray:none;stroke-opacity:1"
         d="m 726.97958,822.39635 165.59515,91.70825 23.10379,7.67525 34.42808,14.91601 18.3107,8.68169 21.6886,7.55936 145.7804,49.02709 19.4615,1.9744 45.6779,3.9192 26.5022,1.7986 37.1309,0.9136 16.1996,1.2337 9.9465,0.4567"
         id="path1260"
         sodipodi:nodetypes="ccccccccccccc" />
      <path
         style="fill:none;stroke:#687a8e;stroke-width:8.72303;stroke-linecap:butt;stroke-linejoin:miter;stroke-miterlimit:4;stroke-dasharray:none;stroke-opacity:1"
         d="m 750.76032,807.35013 146.77663,79.83264 35.71682,15.33592 25.36953,10.08454 11.3876,5.41435 24.3679,9.84524 138.8968,55.08648 23.5766,5.0473 44.3512,9.5311 27.6412,3.5313 61.9603,11.2012"
         id="path1262"
         sodipodi:nodetypes="ccccccccccc" />
      <path
         style="fill:none;stroke:#687a8e;stroke-width:8.72303;stroke-linecap:butt;stroke-linejoin:miter;stroke-miterlimit:4;stroke-dasharray:none;stroke-opacity:1"
         d="m 776.29135,790.16766 126.74752,71.19005 45.42493,20.23752 19.583,8.89499 6.0546,2.50822 28.5915,12.13391 129.6596,60.47155 28.9347,9.0796 40.1782,13.4082 30.0387,8.1513 37.2687,9.2742 22.0321,6.743"
         id="path1264"
         sodipodi:nodetypes="cccccccccccc" />
      <path
         style="fill:none;stroke:#687a8e;stroke-width:8.72303;stroke-linecap:butt;stroke-linejoin:miter;stroke-miterlimit:4;stroke-dasharray:none;stroke-opacity:1"
         d="m 798.96708,774.99185 113.5646,61.24347 48.77192,24.9187 15.0094,7.95551 33.5351,16.3759 123.2849,63.77799 30.9379,12.22768 39.2579,17.5233 31.5974,10.5989 55.8787,22.6469"
         id="path1266" />
      <path
         style="fill:none;stroke:#687a8e;stroke-width:8.72303;stroke-linecap:butt;stroke-linejoin:miter;stroke-miterlimit:4;stroke-dasharray:none;stroke-opacity:1"
         d="m 823.68381,758.93042 98.59949,54.33064 49.7588,22.85769 46.0198,28.21949 120.0481,70.22944 31.1187,14.91647 37.7547,20.21395 28.5333,13.3759 55.2882,29.1862"
         id="path1268" />
      <path
         style="fill:none;stroke:#687a8e;stroke-width:8.72303;stroke-linecap:butt;stroke-linejoin:miter;stroke-miterlimit:4;stroke-dasharray:none;stroke-opacity:1"
         d="m 847.67566,742.89568 85.97003,47.26273 44.07741,24.41565 49.0592,29.34486 118.5006,70.90994 30.1763,21.337 34.1799,22.84914 28.6928,17.4983 34.0223,21.943 18.4507,13.8039"
         id="path1270" />
      <path
         style="fill:none;stroke:#687a8e;stroke-width:8.72303;stroke-linecap:butt;stroke-linejoin:miter;stroke-miterlimit:4;stroke-dasharray:none;stroke-opacity:1"
         d="m 871.09532,727.94833 76.93498,41.5832 32.3406,18.73881 23.7572,13.09334 10.7604,6.75675 23.026,15.49156 114.4406,80.58569 27.0897,20.49815 32.9886,24.63829 27.3911,21.67258 34.695,24.541 16.2854,16.7125"
         id="path1272" />
      <path
         style="fill:none;stroke:#687a8e;stroke-width:8.72303;stroke-linecap:butt;stroke-linejoin:miter;stroke-miterlimit:4;stroke-dasharray:none;stroke-opacity:1"
         d="m 726.97958,822.39635 168.97948,78.20717 31.23793,9.43903 27.80181,12.20691 14.1111,6.60861 24.2592,6.45003 140.5509,43.0292 26.4811,4.4226 43.0993,5.7927 29.3394,3.9528 42.9537,3.2935 21.5369,2.2426"
         id="path1274"
         sodipodi:nodetypes="cccccccccccc" />
      <path
         style="fill:none;stroke:#687a8e;stroke-width:8.72303;stroke-linecap:butt;stroke-linejoin:miter;stroke-miterlimit:4;stroke-dasharray:none;stroke-opacity:1"
         d="m 750.76032,807.35013 149.3214,67.12803 42.76511,17.47957 20.38277,8.26891 8.5359,3.68216 28.7615,10.65683 133.1085,48.18737 29.2173,6.9662 42.584,7.8305 29.4964,7.7923 40.5412,7.1868 21.856,5.5127"
         id="path1276"
         sodipodi:nodetypes="cccccccccccc" />
      <path
         style="fill:none;stroke:#687a8e;stroke-width:8.72303;stroke-linecap:butt;stroke-linejoin:miter;stroke-miterlimit:4;stroke-dasharray:none;stroke-opacity:1"
         d="m 776.29135,790.16766 131.31291,60.9926 47.07204,19.90928 17.1592,7.81453 36.6517,13.18171 126.1128,53.85441 31.6694,10.68111 40.2265,11.1249 30.1289,11.5691 40.3946,11.423 20.311,7.3232"
         id="path1278"
         sodipodi:nodetypes="ccccccccccc" />
      <path
         style="fill:none;stroke:#687a8e;stroke-width:8.72303;stroke-linecap:butt;stroke-linejoin:miter;stroke-miterlimit:4;stroke-dasharray:none;stroke-opacity:1"
         d="m 798.96707,774.99185 116.07663,53.18452 50.7171,23.0022 15.2574,8.21712 33.3324,15.16129 124.0936,55.61694 33.0474,13.46127 38.1219,17.71501 29.1219,12.1328 58.595,24.5585"
         id="path1280"
         sodipodi:nodetypes="cccccccccc" />
      <path
         style="fill:none;stroke:#687a8e;stroke-width:8.72303;stroke-linecap:butt;stroke-linejoin:miter;stroke-miterlimit:4;stroke-dasharray:none;stroke-opacity:1"
         d="m 823.68382,758.93042 101.15326,46.37497 49.78522,23.76151 49.2977,26.07232 121.0623,61.15949 30.787,16.99938 35.8405,18.528 30.1432,15.21751 55.5774,30.9979"
         id="path1282"
         sodipodi:nodetypes="ccccccccc" />
      <path
         style="fill:none;stroke:#687a8e;stroke-width:8.72303;stroke-linecap:butt;stroke-linejoin:miter;stroke-miterlimit:4;stroke-dasharray:none;stroke-opacity:1"
         d="m 847.67565,742.89568 90.22714,41.57913 40.59411,21.46019 27.4973,12.72068 27.3383,15.5296 119.5427,70.1297 27.7112,19.07661 35.2547,20.65032 28.6574,15.70139 35.3687,26.4391 17.4632,11.8591"
         id="path1284"
         sodipodi:nodetypes="ccccccccccc" />
      <path
         style="fill:none;stroke:#687a8e;stroke-width:8.72303;stroke-linecap:butt;stroke-linejoin:miter;stroke-miterlimit:4;stroke-dasharray:none;stroke-opacity:1"
         d="m 871.09532,727.94833 80.76018,35.96439 30.4521,16.67572 26.1673,13.36799 12.172,6.23287 21.7367,14.38454 120.9507,76.65977 23.885,16.99674 34.4363,26.33064 26.562,20.04498 33.1886,29.74203 15.9242,13.6935"
         id="path1286" />
    </g>
  </g>
  <g
     inkscape:groupmode="layer"
     id="layer5"
     inkscape:label="svg spectrograph"
     style="display:inline">
    <g
       id="g3486"
       transform="matrix(1.1463786,0,0,1.1464016,389.11111,68.708989)"
       style="stroke-width:1.74461;stroke-miterlimit:4;stroke-dasharray:none">
      <path
         style="fill:none;stroke:#ffffff;stroke-width:1.74461;stroke-linecap:butt;stroke-linejoin:miter;stroke-miterlimit:4;stroke-dasharray:none;stroke-opacity:1"
         d="m 1794.5989,56.334314 h 10.2208 c 28.1126,162.237116 21.1778,293.869046 0.8578,442.787076 h -11.1285 c 22.2695,-145.99503 26.5837,-292.887 0.05,-442.787076 z"
         id="path917"
         sodipodi:nodetypes="ccccc" />
      <path
         style="fill:none;stroke:#87cdde;stroke-width:1.74461;stroke-linecap:butt;stroke-linejoin:miter;stroke-miterlimit:4;stroke-dasharray:none;stroke-opacity:1"
         d="M 873.10967,727.94833 V 205.17545 l 938.24103,0.97445 -756.3559,71.81754 757.3162,-48.01287 H 847.67564 v 512.94111"
         id="path939"
         sodipodi:nodetypes="ccccccc" />
      <path
         style="fill:none;stroke:#87cdde;stroke-width:1.74461;stroke-linecap:butt;stroke-linejoin:miter;stroke-miterlimit:4;stroke-dasharray:none;stroke-opacity:1"
         d="M 823.6838,758.93036 V 254.73134 h 989.171 l -757.86,23.2361 757.8246,-0.20228 H 800.46153 l -1.49446,497.22667"
         id="path941"
         sodipodi:nodetypes="ccccccc" />
      <path
         style="fill:none;stroke:#87cdde;stroke-width:1.74461;stroke-linecap:butt;stroke-linejoin:miter;stroke-miterlimit:4;stroke-dasharray:none;stroke-opacity:1"
         d="M 776.29135,790.16766 V 301.61507 H 1812.546 l -757.5512,-23.64763 756.6809,48.47436 H 750.76031 v 480.90833"
         id="path945"
         sodipodi:nodetypes="ccccccc" />
      <path
         style="fill:none;stroke:#ffffff;stroke-width:1.74461;stroke-linecap:butt;stroke-linejoin:miter;stroke-miterlimit:4;stroke-dasharray:none;stroke-opacity:1"
         d="M 726.97958,822.39635 873.10967,727.94833"
         id="path1043"
         sodipodi:nodetypes="cc" />
      <path
         style="fill:none;stroke:#87cdde;stroke-width:1.74461;stroke-linecap:butt;stroke-linejoin:miter;stroke-miterlimit:4;stroke-dasharray:none;stroke-opacity:1"
         d="M 726.97958,350.45594 V 822.39635"
         id="path1041" />
      <path
         style="fill:none;stroke:#87cdde;stroke-width:1.74461;stroke-linecap:butt;stroke-linejoin:miter;stroke-miterlimit:4;stroke-dasharray:none;stroke-opacity:1"
         d="m 1054.9948,277.96744 755.4389,72.4885 H 726.97958"
         id="path947"
         sodipodi:nodetypes="ccc" />
      <path
         style="fill:none;stroke:#ffffff;stroke-width:1.74461;stroke-linecap:butt;stroke-linejoin:miter;stroke-miterlimit:4;stroke-dasharray:none;stroke-opacity:1"
         d="m 1052.526,203.93539 c 3.212,48.93169 3.0327,99.53159 0.2825,146.4254"
         id="path949"
         sodipodi:nodetypes="cc" />
      <path
         style="fill:none;stroke:#ffffff;stroke-width:1.74461;stroke-linecap:butt;stroke-linejoin:miter;stroke-miterlimit:4;stroke-dasharray:none;stroke-opacity:1"
         d="m 884.79567,184.60945 3.9175,3.73677 -179.24922,179.22591 -3.35925,-4.25936 z"
         id="path951"
         sodipodi:nodetypes="ccccc" />
      <path
         style="fill:none;stroke:#ffffff;stroke-width:1.74461;stroke-linecap:butt;stroke-linejoin:miter;stroke-miterlimit:4;stroke-dasharray:none;stroke-opacity:1"
         d="m 984.9204,968.1453 -15.654,-7.6151 c -4.4037,-100.59144 34.5521,-147.4392 79.1499,-187.29371 l 14.7389,8.21746 c -38.5482,57.6147 -64.0298,120.06602 -78.2348,186.69135 z"
         id="path953"
         sodipodi:nodetypes="ccccc" />
      <path
         style="fill:none;stroke:#ffffff;stroke-width:1.74461;stroke-linecap:butt;stroke-linejoin:miter;stroke-miterlimit:4;stroke-dasharray:none;stroke-opacity:1"
         d="M 943.59598,948.51008 1020.091,764.91216 981.3673,748.40164 c 7.9924,74.73961 -20.8907,134.42477 -74.95236,184.35233 z"
         id="path955"
         sodipodi:nodetypes="ccccc" />
      <path
         style="fill:none;stroke:#ffffff;stroke-width:1.74461;stroke-linecap:butt;stroke-linejoin:miter;stroke-miterlimit:4;stroke-dasharray:none;stroke-opacity:1"
         d="m 968.6275,743.09464 11.2777,4.94848 c 7.511,67.8594 -16.7455,131.1006 -75.47897,184.00898 l -12.9392,-4.78839 c 5.68365,-70.86985 30.5037,-132.68237 77.14047,-184.16907 z"
         id="path957"
         sodipodi:nodetypes="ccccc" />
      <path
         style="fill:none;stroke:#ffffff;stroke-width:1.74461;stroke-linecap:butt;stroke-linejoin:miter;stroke-miterlimit:4;stroke-dasharray:none;stroke-opacity:1"
         d="m 1143.2565,1020.6778 9.707,2.058 c 5.1554,-64.91973 30.1811,-117.0021 66.2335,-161.96039 l -6.7782,-4.97977 c -77.1015,36.07579 -91.3718,94.71061 -69.1623,164.88216 z"
         id="path959"
         sodipodi:nodetypes="ccccc" />
      <path
         style="fill:none;stroke:#ffffff;stroke-width:1.74461;stroke-linecap:butt;stroke-linejoin:miter;stroke-miterlimit:4;stroke-dasharray:none;stroke-opacity:1"
         d="m 1204.1774,1021.9383 18.8457,8.7161 c 7.6167,-44.8126 25.1943,-86.44749 52.5081,-124.97651 l -19.5329,-8.75735 c -38.7951,31.12911 -59.7962,70.97556 -51.8209,125.01776 z"
         id="path961"
         sodipodi:nodetypes="ccccc" />
      <path
         style="fill:none;stroke:#ffffff;stroke-width:1.74461;stroke-linecap:butt;stroke-linejoin:miter;stroke-miterlimit:4;stroke-dasharray:none;stroke-opacity:1"
         d="m 1258.8271,1016.4163 17.7282,8.9224 c 7.8747,-27.2151 18.5443,-53.2188 32.565,-77.77026 l -17.7675,-8.71217 c -4.6376,30.27633 -11.7125,58.61163 -32.5257,77.56003 z"
         id="path963"
         sodipodi:nodetypes="ccccc" />
      <path
         style="fill:none;stroke:#ffffff;stroke-width:1.74461;stroke-linecap:butt;stroke-linejoin:miter;stroke-miterlimit:4;stroke-dasharray:none;stroke-opacity:1"
         d="m 1288.2979,1019.7743 25.8712,-61.81311"
         id="path965" />
      <path
         style="fill:none;stroke:#ff7f2a;stroke-width:1.74461;stroke-linecap:butt;stroke-linejoin:miter;stroke-miterlimit:4;stroke-dasharray:none;stroke-opacity:1"
         d="m 871.09531,727.94833 88.08149,25.98051 21.7021,10.29125 35.0091,13.78232 19.1812,7.46247 19.7768,10.00012 136.0536,70.06437 16.4731,13.42717 36.3074,28.53647 18.7285,17.8704 26.7984,25.57037 19.9535,19.03932"
         id="path979"
         sodipodi:nodetypes="cccccccccccc" />
      <path
         style="fill:none;stroke:#ff7f2a;stroke-width:1.74461;stroke-linecap:butt;stroke-linejoin:miter;stroke-miterlimit:4;stroke-dasharray:none;stroke-opacity:1"
         d="m 847.67565,742.89568 100.46765,28.92616 32.8726,14.42902 24.8916,10.75838 36.3814,17.29493 136.2735,61.65735 80.8465,54.73098 49.7516,39.2806"
         id="path981"
         sodipodi:nodetypes="cccccccc" />
      <path
         style="fill:none;stroke:#ff7f2a;stroke-width:1.74461;stroke-linecap:butt;stroke-linejoin:miter;stroke-miterlimit:4;stroke-dasharray:none;stroke-opacity:1"
         d="m 823.68381,758.9304 109.21453,33.52448 101.29016,39.82135 134.6474,52.59895 25.0704,13.78449 35.916,23.31239 25.9749,14.82571 53.3633,33.17533"
         id="path983"
         sodipodi:nodetypes="cccccccc" />
      <path
         style="fill:none;stroke:#ff7f2a;stroke-width:1.74461;stroke-linecap:butt;stroke-linejoin:miter;stroke-miterlimit:4;stroke-dasharray:none;stroke-opacity:1"
         d="m 798.96707,774.99185 122.79888,37.44617 50.31975,17.84205 16.1266,6.52394 37.6428,12.42121 131.8489,46.61179 30.7219,12.2681 64.6005,34.20374 56.1341,27.66425"
         id="path985"
         sodipodi:nodetypes="ccccccccc" />
      <path
         style="fill:none;stroke:#ff7f2a;stroke-width:1.74461;stroke-linecap:butt;stroke-linejoin:miter;stroke-miterlimit:4;stroke-dasharray:none;stroke-opacity:1"
         d="m 776.29135,790.16766 137.59413,41.22447 233.74892,76.31943 102.7766,39.64441 58.7495,22.61713"
         id="path987"
         sodipodi:nodetypes="ccccc" />
      <path
         style="fill:none;stroke:#ff7f2a;stroke-width:1.74461;stroke-linecap:butt;stroke-linejoin:miter;stroke-miterlimit:4;stroke-dasharray:none;stroke-opacity:1"
         d="M 750.76032,807.35013 905.58619,852.9218 1309.1605,969.9731"
         id="path989"
         sodipodi:nodetypes="ccc" />
      <path
         style="fill:none;stroke:#ff7f2a;stroke-width:1.74461;stroke-linecap:butt;stroke-linejoin:miter;stroke-miterlimit:4;stroke-dasharray:none;stroke-opacity:1"
         d="m 726.97958,822.39635 172.67398,52.5571 42.05082,13.80758 22.68542,6.98221 344.7707,74.22986"
         id="path991"
         sodipodi:nodetypes="ccccc" />
      <path
         style="fill:none;stroke:#37abc8;stroke-width:1.74461;stroke-linecap:butt;stroke-linejoin:miter;stroke-miterlimit:4;stroke-dasharray:none;stroke-opacity:1"
         d="m 726.97958,822.39635 165.59515,91.70825 23.10379,7.67525 34.42808,14.91601 18.3107,8.68169 21.6886,7.55936 145.7804,49.02709 19.4615,1.9744 45.6779,3.9192 26.5022,1.7986 37.1309,0.9136 16.1996,1.2337 9.9465,0.4567"
         id="path993"
         sodipodi:nodetypes="ccccccccccccc" />
      <path
         style="fill:none;stroke:#37abc8;stroke-width:1.74461;stroke-linecap:butt;stroke-linejoin:miter;stroke-miterlimit:4;stroke-dasharray:none;stroke-opacity:1"
         d="m 750.76032,807.35013 146.77663,79.83264 35.71682,15.33592 25.36953,10.08454 11.3876,5.41435 24.3679,9.84524 138.8968,55.08648 23.5766,5.0473 44.3512,9.5311 27.6412,3.5313 61.9603,11.2012"
         id="path995"
         sodipodi:nodetypes="ccccccccccc" />
      <path
         style="fill:none;stroke:#37abc8;stroke-width:1.74461;stroke-linecap:butt;stroke-linejoin:miter;stroke-miterlimit:4;stroke-dasharray:none;stroke-opacity:1"
         d="m 776.29135,790.16766 126.74752,71.19005 45.42493,20.23752 19.583,8.89499 6.0546,2.50822 28.5915,12.13391 129.6596,60.47155 28.9347,9.0796 40.1782,13.4082 30.0387,8.1513 37.2687,9.2742 22.0321,6.743"
         id="path997"
         sodipodi:nodetypes="cccccccccccc" />
      <path
         style="fill:none;stroke:#37abc8;stroke-width:1.74461;stroke-linecap:butt;stroke-linejoin:miter;stroke-miterlimit:4;stroke-dasharray:none;stroke-opacity:1"
         d="m 798.96708,774.99185 113.5646,61.24347 48.77192,24.9187 15.0094,7.95551 33.5351,16.3759 123.2849,63.77799 30.9379,12.22768 39.2579,17.5233 31.5974,10.5989 55.8787,22.6469"
         id="path999" />
      <path
         style="fill:none;stroke:#37abc8;stroke-width:1.74461;stroke-linecap:butt;stroke-linejoin:miter;stroke-miterlimit:4;stroke-dasharray:none;stroke-opacity:1"
         d="m 823.68381,758.93042 98.59949,54.33064 49.7588,22.85769 46.0198,28.21949 120.0481,70.22944 31.1187,14.91647 37.7547,20.21395 28.5333,13.3759 55.2882,29.1862"
         id="path1001" />
      <path
         style="fill:none;stroke:#37abc8;stroke-width:1.74461;stroke-linecap:butt;stroke-linejoin:miter;stroke-miterlimit:4;stroke-dasharray:none;stroke-opacity:1"
         d="m 847.67566,742.89568 85.97003,47.26273 44.07741,24.41565 49.0592,29.34486 118.5006,70.90994 30.1763,21.337 34.1799,22.84914 28.6928,17.4983 34.0223,21.943 18.4507,13.8039"
         id="path1003" />
      <path
         style="fill:none;stroke:#37abc8;stroke-width:1.74461;stroke-linecap:butt;stroke-linejoin:miter;stroke-miterlimit:4;stroke-dasharray:none;stroke-opacity:1"
         d="m 871.09532,727.94833 76.93498,41.5832 32.3406,18.73881 23.7572,13.09334 10.7604,6.75675 23.026,15.49156 114.4406,80.58569 27.0897,20.49815 32.9886,24.63829 27.3911,21.67258 34.695,24.541 16.2854,16.7125"
         id="path1005" />
      <path
         style="fill:none;stroke:#71c837;stroke-width:1.74461;stroke-linecap:butt;stroke-linejoin:miter;stroke-miterlimit:4;stroke-dasharray:none;stroke-opacity:1"
         d="m 726.97958,822.39635 168.97948,78.20717 31.23793,9.43903 27.80181,12.20691 14.1111,6.60861 24.2592,6.45003 140.5509,43.0292 26.4811,4.4226 43.0993,5.7927 29.3394,3.9528 42.9537,3.2935 21.5369,2.2426"
         id="path1007"
         sodipodi:nodetypes="cccccccccccc" />
      <path
         style="fill:none;stroke:#71c837;stroke-width:1.74461;stroke-linecap:butt;stroke-linejoin:miter;stroke-miterlimit:4;stroke-dasharray:none;stroke-opacity:1"
         d="m 750.76032,807.35013 149.3214,67.12803 42.76511,17.47957 20.38277,8.26891 8.5359,3.68216 28.7615,10.65683 133.1085,48.18737 29.2173,6.9662 42.584,7.8305 29.4964,7.7923 40.5412,7.1868 21.856,5.5127"
         id="path1009"
         sodipodi:nodetypes="cccccccccccc" />
      <path
         style="fill:none;stroke:#71c837;stroke-width:1.74461;stroke-linecap:butt;stroke-linejoin:miter;stroke-miterlimit:4;stroke-dasharray:none;stroke-opacity:1"
         d="m 776.29135,790.16766 131.31291,60.9926 47.07204,19.90928 17.1592,7.81453 36.6517,13.18171 126.1128,53.85441 31.6694,10.68111 40.2265,11.1249 30.1289,11.5691 40.3946,11.423 20.311,7.3232"
         id="path1011"
         sodipodi:nodetypes="ccccccccccc" />
      <path
         style="fill:none;stroke:#71c837;stroke-width:1.74461;stroke-linecap:butt;stroke-linejoin:miter;stroke-miterlimit:4;stroke-dasharray:none;stroke-opacity:1"
         d="m 798.96707,774.99185 116.07663,53.18452 50.7171,23.0022 15.2574,8.21712 33.3324,15.16129 124.0936,55.61694 33.0474,13.46127 38.1219,17.71501 29.1219,12.1328 58.595,24.5585"
         id="path1013"
         sodipodi:nodetypes="cccccccccc" />
      <path
         style="fill:none;stroke:#71c837;stroke-width:1.74461;stroke-linecap:butt;stroke-linejoin:miter;stroke-miterlimit:4;stroke-dasharray:none;stroke-opacity:1"
         d="m 823.68382,758.93042 101.15326,46.37497 49.78522,23.76151 49.2977,26.07232 121.0623,61.15949 30.787,16.99938 35.8405,18.528 30.1432,15.21751 55.5774,30.9979"
         id="path1015"
         sodipodi:nodetypes="ccccccccc" />
      <path
         style="fill:none;stroke:#71c837;stroke-width:1.74461;stroke-linecap:butt;stroke-linejoin:miter;stroke-miterlimit:4;stroke-dasharray:none;stroke-opacity:1"
         d="m 847.67565,742.89568 90.22714,41.57913 40.59411,21.46019 27.4973,12.72068 27.3383,15.5296 119.5427,70.1297 27.7112,19.07661 35.2547,20.65032 28.6574,15.70139 35.3687,26.4391 17.4632,11.8591"
         id="path1017"
         sodipodi:nodetypes="ccccccccccc" />
      <path
         style="fill:none;stroke:#71c837;stroke-width:1.74461;stroke-linecap:butt;stroke-linejoin:miter;stroke-miterlimit:4;stroke-dasharray:none;stroke-opacity:1"
         d="m 871.09532,727.94833 80.76018,35.96439 30.4521,16.67572 26.1673,13.36799 12.172,6.23287 21.7367,14.38454 120.9507,76.65977 23.885,16.99674 34.4363,26.33064 26.562,20.04498 33.1886,29.74203 15.9242,13.6935"
         id="path1019" />
    </g>
  </g>
  <g
     inkscape:groupmode="layer"
     id="layer1"
     inkscape:label="spotlight"
     style="display:none">
    <rect
       style="fill:url(#radialGradient1699);fill-opacity:1;stroke:none;stroke-width:3;stroke-dasharray:36, 36;paint-order:markers fill stroke"
       id="rect1691"
       width="2600"
       height="1408"
       x="0"
       y="0" />
  </g>
  <g
     inkscape:groupmode="layer"
     id="g2072"
     inkscape:label="exponential spotlight"
     style="display:none">
    <rect
       style="fill:url(#radialGradient2118);fill-opacity:1;stroke:none;stroke-width:3;stroke-dasharray:36, 36;paint-order:markers fill stroke"
       id="rect2070"
       width="2600"
       height="1408"
       x="0"
       y="0" />
  </g>
  <g
     inkscape:groupmode="layer"
     id="layer3"
     inkscape:label="text"
     style="display:inline">
    <text
       xml:space="preserve"
       style="font-size:40px;line-height:1.25;font-family:Dosis;-inkscape-font-specification:'Dosis, Normal';fill:#ffffff"
       x="139.65009"
       y="706.59039"
       id="text850"><tspan
         sodipodi:role="line"
         id="tspan848"
         x="139.65009"
         y="706.59039"
         style="font-style:normal;font-variant:normal;font-weight:normal;font-stretch:normal;font-family:'Sarabun SemiBold';-inkscape-font-specification:'Sarabun SemiBold, ';fill:#ffffff">BENCH SPECTROGRAPH</tspan></text>
    <text
       xml:space="preserve"
       style="font-size:31.431px;line-height:1.25;font-family:Dosis;-inkscape-font-specification:'Dosis, Normal';white-space:pre;inline-size:586.081;fill:#ffffff;stroke-width:1"
       x="113.75543"
       y="612.99371"
       id="text854"
       transform="translate(26.186015,193.38413)"><tspan
         x="113.75543"
         y="612.99371"><tspan>Viaspec will have a 260 mm beam spectrograph </tspan></tspan><tspan
         x="113.75543"
         y="652.28248"><tspan>to accommodate 600 fibers.  The camera is a </tspan></tspan><tspan
         x="113.75543"
         y="691.57124"><tspan>simplified version of the GMACS blue channel </tspan></tspan><tspan
         x="113.75543"
         y="730.85999"><tspan>design with very high image quality of ~25µm </tspan></tspan><tspan
         x="113.75543"
         y="770.14875"><tspan>RMS diameter.  The optical reduction factor is </tspan></tspan><tspan
         x="113.75543"
         y="809.43751"><tspan>2.29, so a 1.15</tspan><tspan>″</tspan><tspan> fiber forms an ~90 µm diameter </tspan></tspan><tspan
         x="113.75543"
         y="849.29139"><tspan>image. The spherical collimator mirror is ~800 </tspan></tspan><tspan
         x="113.75543"
         y="888.58015"><tspan>mm in diameter.  The spectrograph is to be </tspan></tspan><tspan
         x="113.75543"
         y="927.86891"><tspan>located in a gravity-invariant, thermally stable </tspan></tspan><tspan
         x="113.75543"
         y="967.15766"><tspan>enclosure.</tspan></tspan></text>
    <text
       xml:space="preserve"
       style="font-size:33.6437px;line-height:1.25;font-family:Dosis;-inkscape-font-specification:'Dosis, Normal';fill:#ffffff;stroke-width:0.999999"
       x="139.85349"
       y="648.07745"
       id="text1689"><tspan
         sodipodi:role="line"
         id="tspan1687"
         x="139.85349"
         y="648.07745"
         style="font-style:normal;font-variant:normal;font-weight:normal;font-stretch:normal;font-family:'Sarabun SemiBold';-inkscape-font-specification:'Sarabun SemiBold, ';fill:#ffffff;stroke-width:0.999999">COMPONENT</tspan></text>
  </g>
</svg>
