<?xml version="1.0" encoding="UTF-8" standalone="no"?>
<svg
   xmlns:dc="http://purl.org/dc/elements/1.1/"
   xmlns:cc="http://creativecommons.org/ns#"
   xmlns:rdf="http://www.w3.org/1999/02/22-rdf-syntax-ns#"
   xmlns:svg="http://www.w3.org/2000/svg"
   xmlns="http://www.w3.org/2000/svg"
   xmlns:xlink="http://www.w3.org/1999/xlink"
   xmlns:sodipodi="http://sodipodi.sourceforge.net/DTD/sodipodi-0.dtd"
   xmlns:inkscape="http://www.inkscape.org/namespaces/inkscape"
   version="1.1"
   id="svg2"
   width="2600"
   height="1408"
   viewBox="0 0 2600 1408"
   sodipodi:docname="system_design.svg"
   inkscape:version="1.0.1 (3bc2e813f5, 2020-09-07)"
   inkscape:export-filename="/home/ana/web/react_hack/via_test/via/img/system_design.png"
   inkscape:export-xdpi="96"
   inkscape:export-ydpi="96">
  <metadata
     id="metadata8">
    <rdf:RDF>
      <cc:Work
         rdf:about="">
        <dc:format>image/svg+xml</dc:format>
        <dc:type
           rdf:resource="http://purl.org/dc/dcmitype/StillImage" />
        <dc:title></dc:title>
      </cc:Work>
    </rdf:RDF>
  </metadata>
  <defs
     id="defs6">
    <linearGradient
       inkscape:collect="always"
       id="linearGradient2110">
      <stop
         style="stop-color:#000000;stop-opacity:0"
         offset="0"
         id="stop2090" />
      <stop
         style="stop-color:#000000;stop-opacity:0"
         offset="0.13455842"
         id="stop2120" />
      <stop
         style="stop-color:#000000;stop-opacity:0.055"
         offset="0.2727882"
         id="stop2092" />
      <stop
         style="stop-color:#000000;stop-opacity:0.102"
         offset="0.38857511"
         id="stop2094" />
      <stop
         style="stop-color:#000000;stop-opacity:0.2"
         offset="0.5059219"
         id="stop2096" />
      <stop
         style="stop-color:#000000;stop-opacity:0.302"
         offset="0.59330624"
         id="stop2116" />
      <stop
         style="stop-color:#000000;stop-opacity:0.4"
         offset="0.68918884"
         id="stop2098" />
      <stop
         style="stop-color:#000000;stop-opacity:0.502"
         offset="0.76767731"
         id="stop2100" />
      <stop
         style="stop-color:#000000;stop-opacity:0.6"
         offset="0.83834124"
         id="stop2102" />
      <stop
         style="stop-color:#000000;stop-opacity:0.698"
         offset="0.89329505"
         id="stop2104" />
      <stop
         style="stop-color:#000000;stop-opacity:0.8"
         offset="0.94278944"
         id="stop2106" />
      <stop
         style="stop-color:#000000;stop-opacity:0.898"
         offset="0.9769488"
         id="stop2112" />
      <stop
         style="stop-color:#000000;stop-opacity:1"
         offset="1"
         id="stop2108" />
    </linearGradient>
    <radialGradient
       inkscape:collect="always"
       xlink:href="#linearGradient1697"
       id="radialGradient1699"
       cx="1948.9918"
       cy="880.89673"
       fx="1948.9918"
       fy="880.89673"
       r="1300"
       gradientTransform="matrix(-0.35718348,-0.65390024,1.0351181,-0.56541816,1880.2264,2094.3532)"
       gradientUnits="userSpaceOnUse" />
    <linearGradient
       inkscape:collect="always"
       id="linearGradient1697">
      <stop
         style="stop-color:#000000;stop-opacity:0"
         offset="0"
         id="stop1693" />
      <stop
         style="stop-color:#000000;stop-opacity:0;"
         offset="0.11505494"
         id="stop2074" />
      <stop
         style="stop-color:#000000;stop-opacity:0;"
         offset="0.25079709"
         id="stop2076" />
      <stop
         style="stop-color:#000000;stop-opacity:0;"
         offset="0.39882603"
         id="stop2078" />
      <stop
         style="stop-color:#000000;stop-opacity:0;"
         offset="0.52282888"
         id="stop2080" />
      <stop
         style="stop-color:#000000;stop-opacity:0"
         offset="0.65361851"
         id="stop1701" />
      <stop
         style="stop-color:#000000;stop-opacity:0.21176471;"
         offset="0.72787774"
         id="stop2082" />
      <stop
         style="stop-color:#000000;stop-opacity:0.5254902;"
         offset="0.83708221"
         id="stop2084" />
      <stop
         style="stop-color:#000000;stop-opacity:0.78823529;"
         offset="0.92807436"
         id="stop2086" />
      <stop
         style="stop-color:#000000;stop-opacity:1"
         offset="1"
         id="stop1695" />
    </linearGradient>
    <filter
       inkscape:collect="always"
       style="color-interpolation-filters:sRGB"
       id="filter2022"
       x="-0.010605766"
       width="1.0212115"
       y="-0.019477449"
       height="1.0389549">
      <feGaussianBlur
         inkscape:collect="always"
         stdDeviation="11.524156"
         id="feGaussianBlur2024" />
    </filter>
    <filter
       inkscape:collect="always"
       style="color-interpolation-filters:sRGB"
       id="filter2064"
       x="-0.022945374"
       width="1.0458907"
       y="-0.042139091"
       height="1.0842782">
      <feGaussianBlur
         inkscape:collect="always"
         stdDeviation="24.932294"
         id="feGaussianBlur2066" />
    </filter>
    <radialGradient
       inkscape:collect="always"
       xlink:href="#linearGradient2110"
       id="radialGradient2118"
       gradientUnits="userSpaceOnUse"
       gradientTransform="matrix(-0.35718348,-0.65390024,1.0351181,-0.56541816,1880.2264,2094.3532)"
       cx="1948.9918"
       cy="880.89673"
       fx="1948.9918"
       fy="880.89673"
       r="1300" />
  </defs>
  <sodipodi:namedview
     pagecolor="#ffffff"
     bordercolor="#666666"
     borderopacity="1"
     objecttolerance="10"
     gridtolerance="10"
     guidetolerance="10"
     inkscape:pageopacity="0"
     inkscape:pageshadow="2"
     inkscape:window-width="1920"
     inkscape:window-height="1127"
     id="namedview4"
     showgrid="false"
     inkscape:snap-bbox="true"
     inkscape:zoom="0.51615385"
     inkscape:cx="1250.9003"
     inkscape:cy="608.78664"
     inkscape:window-x="0"
     inkscape:window-y="0"
     inkscape:window-maximized="1"
     inkscape:current-layer="layer3"
     showguides="false" />
  <g
     inkscape:groupmode="layer"
     id="layer4"
     inkscape:label="background">
    <rect
       style="fill:#7c7c7c;fill-opacity:1;stroke:none;stroke-width:3;stroke-dasharray:36, 36;paint-order:markers fill stroke"
       id="rect878"
       width="2600"
       height="1408"
       x="0"
       y="0" />
  </g>
  <g
     inkscape:groupmode="layer"
     inkscape:label="Image"
     id="g10"
     style="display:inline">
    <image
       sodipodi:absref="/home/ana/web/react_hack/via_test/via/img/docs/Viaspec_Gen2.png"
       xlink:href="Viaspec_Gen2.png"
       style="stroke-width:1.22468"
       y="-10.622784"
       x="822.38562"
       id="image12"
       preserveAspectRatio="none"
       height="1328.5157"
       width="1777.6144" />
    <path
       style="fill:#7c7c7c;fill-opacity:1;stroke:none;stroke-width:1px;stroke-linecap:butt;stroke-linejoin:miter;stroke-opacity:1"
       d="m 1464.2957,-12 -643.18214,0.654034 -4.46735,365.668886 z"
       id="path839"
       sodipodi:nodetypes="cccc" />
    <path
       style="fill:#7c7c7c;fill-opacity:1;stroke:none;stroke-width:1px;stroke-linecap:butt;stroke-linejoin:miter;stroke-opacity:1"
       d="M 1786.0319,1320.4328 818.07091,1066.8976 805.1283,1358.7258 Z"
       id="path841"
       sodipodi:nodetypes="cccc" />
    <rect
       style="fill:#000000;fill-opacity:0;stroke:none;stroke-width:3;stroke-dasharray:36, 36;paint-order:markers fill stroke"
       id="rect1707"
       width="2600"
       height="1408"
       x="0"
       y="-1720" />
    <rect
       style="fill:#000000;fill-opacity:0;stroke:none;stroke-width:3;stroke-dasharray:36, 36;paint-order:markers fill stroke"
       id="rect1711"
       width="2600"
       height="1408"
       x="-10.760743"
       y="-1826.6852" />
    <rect
       style="fill:#000000;fill-opacity:0;stroke:none;stroke-width:3;stroke-dasharray:36, 36;paint-order:markers fill stroke"
       id="rect1713"
       width="2600"
       height="1408"
       x="221.65199"
       y="-1760.5356" />
  </g>
  <g
     inkscape:groupmode="layer"
     id="layer2"
     inkscape:label="contour"
     style="display:none;opacity:1">
    <path
       id="path892"
       style="opacity:0.381352;fill:none;fill-opacity:1;stroke:#000000;stroke-width:10;stroke-linecap:butt;stroke-linejoin:miter;stroke-miterlimit:4;stroke-dasharray:none;stroke-opacity:0.556863;filter:url(#filter2022)"
       d="m 0,0 c 488.09857,-4 976.19713,-8 1464.2957,-12 -71.4628,71.841375 -88.7344,161.04437 -66.8839,257.29406 2.7988,107.8611 120.8401,185.23142 218.5157,211.72705 96.8743,54.33224 223.4112,26.63493 314.3118,57.45962 3.3153,80.63018 -74.4316,141.43734 -105.1568,213.52881 -47.2477,95.47087 -96.2317,-108.01313 -144.263,-147.45936 -66.3925,-83.33406 -215.8293,-87.33574 -229.1711,45.79264 -26.6941,78.21596 -82.9342,193.65621 -168.8618,102.10419 -63.2516,-75.08139 -168.982,1.45681 -212.7133,4.03682 10.1884,-87.32048 -132.14581,-159.36146 -139.65532,-46.31006 -2.00143,114.3196 8.07068,228.82874 10.76339,343.31973 76.65923,70.0418 187.66093,67.8406 281.40593,101.065 90.4771,23.755 180.9543,47.51 271.4314,71.265 67.8127,-61.3407 226.9344,-70.7606 208.276,-182.0681 -8.7845,-68.4221 -10.7452,-129.42144 72.4436,-97.79422 90.1039,25.98672 157.8787,6.33095 185.4665,-91.40015 60.7314,-84.38576 98.2708,-230.18478 221.4196,-233.72824 79.8453,-16.80226 181.839,-18.32984 227.3783,-95.23388 52.0635,-31.32642 229.1558,-52.55569 194.3185,-68.06903 -1.107,324.82334 -2.2142,649.64672 -3.3212,974.47002 -866.6667,0 -1733.33333,0 -2600,0 C 0,938.6666 0,469.3333 0,0 Z" />
    <path
       id="path2026"
       style="opacity:0.381352;fill:none;fill-opacity:1;stroke:#000000;stroke-width:20;stroke-linecap:butt;stroke-linejoin:miter;stroke-miterlimit:4;stroke-dasharray:none;stroke-opacity:0.556863;filter:url(#filter2064)"
       d="m 0,0 c 488.09857,-4 976.19713,-8 1464.2957,-12 -71.4628,71.841375 -88.7344,161.04437 -66.8839,257.29406 2.7988,107.8611 120.8401,185.23142 218.5157,211.72705 96.8743,54.33224 223.4112,26.63493 314.3118,57.45962 3.3153,80.63018 -74.4316,141.43734 -105.1568,213.52881 -47.2477,95.47087 -96.2317,-108.01313 -144.263,-147.45936 -66.3925,-83.33406 -215.8293,-87.33574 -229.1711,45.79264 -26.6941,78.21596 -82.9342,193.65621 -168.8618,102.10419 -63.2516,-75.08139 -168.982,1.45681 -212.7133,4.03682 10.1884,-87.32048 -132.14581,-159.36146 -139.65532,-46.31006 -2.00143,114.3196 8.07068,228.82874 10.76339,343.31973 76.65923,70.0418 187.66093,67.8406 281.40593,101.065 90.4771,23.755 180.9543,47.51 271.4314,71.265 67.8127,-61.3407 226.9344,-70.7606 208.276,-182.0681 -8.7845,-68.4221 -10.7452,-129.42144 72.4436,-97.79422 90.1039,25.98672 157.8787,6.33095 185.4665,-91.40015 60.7314,-84.38576 98.2708,-230.18478 221.4196,-233.72824 79.8453,-16.80226 181.839,-18.32984 227.3783,-95.23388 52.0635,-31.32642 229.1558,-52.55569 194.3185,-68.06903 -1.107,324.82334 -2.2142,649.64672 -3.3212,974.47002 -866.6667,0 -1733.33333,0 -2600,0 C 0,938.6666 0,469.3333 0,0 Z" />
    <path
       id="path2068"
       style="opacity:0.381352;fill:#383838;fill-opacity:1;stroke:none;stroke-width:20;stroke-linecap:butt;stroke-linejoin:miter;stroke-miterlimit:4;stroke-dasharray:none;stroke-opacity:0.556863;filter:url(#filter2064)"
       d="m 0,0 c 488.09857,-4 976.19713,-8 1464.2957,-12 -71.4628,71.841375 -88.7344,161.04437 -66.8839,257.29406 2.7988,107.8611 120.8401,185.23142 218.5157,211.72705 96.8743,54.33224 223.4112,26.63493 314.3118,57.45962 3.3153,80.63018 -74.4316,141.43734 -105.1568,213.52881 -47.2477,95.47087 -96.2317,-108.01313 -144.263,-147.45936 -66.3925,-83.33406 -215.8293,-87.33574 -229.1711,45.79264 -26.6941,78.21596 -82.9342,193.65621 -168.8618,102.10419 -63.2516,-75.08139 -168.982,1.45681 -212.7133,4.03682 10.1884,-87.32048 -132.14581,-159.36146 -139.65532,-46.31006 -2.00143,114.3196 8.07068,228.82874 10.76339,343.31973 76.65923,70.0418 187.66093,67.8406 281.40593,101.065 90.4771,23.755 180.9543,47.51 271.4314,71.265 67.8127,-61.3407 226.9344,-70.7606 208.276,-182.0681 -8.7845,-68.4221 -10.7452,-129.42144 72.4436,-97.79422 90.1039,25.98672 157.8787,6.33095 185.4665,-91.40015 60.7314,-84.38576 98.2708,-230.18478 221.4196,-233.72824 79.8453,-16.80226 181.839,-18.32984 227.3783,-95.23388 52.0635,-31.32642 229.1558,-52.55569 194.3185,-68.06903 -1.107,324.82334 -2.2142,649.64672 -3.3212,974.47002 -866.6667,0 -1733.33333,0 -2600,0 C 0,938.6666 0,469.3333 0,0 Z" />
  </g>
  <g
     inkscape:groupmode="layer"
     id="layer1"
     inkscape:label="spotlight"
     style="display:none">
    <rect
       style="fill:url(#radialGradient1699);fill-opacity:1;stroke:none;stroke-width:3;stroke-dasharray:36, 36;paint-order:markers fill stroke"
       id="rect1691"
       width="2600"
       height="1408"
       x="0"
       y="0" />
  </g>
  <g
     inkscape:groupmode="layer"
     id="g2072"
     inkscape:label="exponential spotlight"
     style="display:inline">
    <rect
       style="fill:url(#radialGradient2118);fill-opacity:1;stroke:none;stroke-width:3;stroke-dasharray:36, 36;paint-order:markers fill stroke"
       id="rect2070"
       width="2600"
       height="1408"
       x="0"
       y="0" />
  </g>
  <g
     inkscape:groupmode="layer"
     id="layer3"
     inkscape:label="text"
     style="display:inline">
    <text
       xml:space="preserve"
       style="font-size:40px;line-height:1.25;font-family:Dosis;-inkscape-font-specification:'Dosis, Normal';fill:#ffffff"
       x="139.65009"
       y="706.59039"
       id="text850"><tspan
         sodipodi:role="line"
         id="tspan848"
         x="139.65009"
         y="706.59039"
         style="font-style:normal;font-variant:normal;font-weight:normal;font-stretch:normal;font-family:'Sarabun SemiBold';-inkscape-font-specification:'Sarabun SemiBold, ';fill:#ffffff">SYSTEM DESIGN</tspan></text>
    <text
       xml:space="preserve"
       style="font-size:31.431px;line-height:1.25;font-family:Dosis;-inkscape-font-specification:'Dosis, Normal';white-space:pre;inline-size:586.081;fill:#ffffff;stroke-width:1"
       x="113.75543"
       y="612.99371"
       id="text854"
       transform="translate(26.186015,193.38413)"><tspan
         x="113.75543"
         y="612.99371"><tspan
           style="font-style:normal;font-variant:normal;font-weight:normal;font-stretch:normal;font-family:Sarabun;-inkscape-font-specification:Sarabun;fill:#ffffff;stroke-width:1">Viaspec will be mounted at the f/5 </tspan></tspan><tspan
         x="113.75543"
         y="652.56651"><tspan
           style="font-style:normal;font-variant:normal;font-weight:normal;font-stretch:normal;font-family:Sarabun;-inkscape-font-specification:Sarabun;fill:#ffffff;stroke-width:1">Cassegrain focus.</tspan><tspan
           style="font-style:normal;font-variant:normal;font-weight:normal;font-stretch:normal;font-family:Sarabun;-inkscape-font-specification:Sarabun;fill:#ffffff;stroke-width:1">The fiber positioner </tspan></tspan><tspan
         x="113.75543"
         y="692.13932"><tspan
           style="font-style:normal;font-variant:normal;font-weight:normal;font-stretch:normal;font-family:Sarabun;-inkscape-font-specification:Sarabun;fill:#ffffff;stroke-width:1">system will be attached to the</tspan><tspan
           style="font-style:normal;font-variant:normal;font-weight:normal;font-stretch:normal;font-family:Sarabun;-inkscape-font-specification:Sarabun;fill:#ffffff;stroke-width:1">primary </tspan></tspan><tspan
         x="113.75543"
         y="731.71214"><tspan
           style="font-style:normal;font-variant:normal;font-weight:normal;font-stretch:normal;font-family:Sarabun;-inkscape-font-specification:Sarabun;fill:#ffffff;stroke-width:1">mirror with six spokes. The fiber run will be </tspan></tspan><tspan
         x="113.75543"
         y="771.28495"><tspan
           style="font-style:normal;font-variant:normal;font-weight:normal;font-stretch:normal;font-family:Sarabun;-inkscape-font-specification:Sarabun;fill:#ffffff;stroke-width:1">kept short to minimize light loss and lead </tspan></tspan><tspan
         x="113.75543"
         y="810.85777"><tspan
           style="font-style:normal;font-variant:normal;font-weight:normal;font-stretch:normal;font-family:Sarabun;-inkscape-font-specification:Sarabun;fill:#ffffff;stroke-width:1">to the bench</tspan><tspan
           style="font-style:normal;font-variant:normal;font-weight:normal;font-stretch:normal;font-family:Sarabun;-inkscape-font-specification:Sarabun;fill:#ffffff;stroke-width:1">spectrograph, 2m in size, </tspan></tspan><tspan
         x="113.75543"
         y="850.43058"><tspan
           style="font-style:normal;font-variant:normal;font-weight:normal;font-stretch:normal;font-family:Sarabun;-inkscape-font-specification:Sarabun;fill:#ffffff;stroke-width:1">stored on a cart, ready for</tspan><tspan
           style="font-style:normal;font-variant:normal;font-weight:normal;font-stretch:normal;font-family:Sarabun;-inkscape-font-specification:Sarabun;fill:#ffffff;stroke-width:1">storage.</tspan></tspan></text>
    <text
       xml:space="preserve"
       style="font-size:33.6437px;line-height:1.25;font-family:Dosis;-inkscape-font-specification:'Dosis, Normal';fill:#ffffff;stroke-width:0.999999"
       x="139.85349"
       y="648.07745"
       id="text1689"><tspan
         sodipodi:role="line"
         id="tspan1687"
         x="139.85349"
         y="648.07745"
         style="font-style:normal;font-variant:normal;font-weight:normal;font-stretch:normal;font-family:'Sarabun SemiBold';-inkscape-font-specification:'Sarabun SemiBold, ';fill:#ffffff;stroke-width:0.999999">OVERVIEW</tspan></text>
  </g>
</svg>
