<?xml version="1.0" encoding="UTF-8" standalone="no"?>
<svg
   xmlns:dc="http://purl.org/dc/elements/1.1/"
   xmlns:cc="http://creativecommons.org/ns#"
   xmlns:rdf="http://www.w3.org/1999/02/22-rdf-syntax-ns#"
   xmlns:svg="http://www.w3.org/2000/svg"
   xmlns="http://www.w3.org/2000/svg"
   xmlns:sodipodi="http://sodipodi.sourceforge.net/DTD/sodipodi-0.dtd"
   xmlns:inkscape="http://www.inkscape.org/namespaces/inkscape"
   viewBox="0 0 21.16664 8.0036713"
   version="1.1"
   id="svg10"
   sodipodi:docname="via_logo_trailer.svg"
   inkscape:version="1.0.1 (3bc2e813f5, 2020-09-07)"
   inkscape:export-filename="/home/ana/web/react_hack/via_test/via/img/svg/via_logo_trailer.png"
   inkscape:export-xdpi="45463.238"
   inkscape:export-ydpi="45463.238">
  <metadata
     id="metadata16">
    <rdf:RDF>
      <cc:Work
         rdf:about="">
        <dc:format>image/svg+xml</dc:format>
        <dc:type
           rdf:resource="http://purl.org/dc/dcmitype/StillImage" />
        <dc:title></dc:title>
      </cc:Work>
    </rdf:RDF>
  </metadata>
  <defs
     id="defs14" />
  <sodipodi:namedview
     pagecolor="#ffffff"
     bordercolor="#666666"
     borderopacity="1"
     objecttolerance="10"
     gridtolerance="10"
     guidetolerance="10"
     inkscape:pageopacity="0"
     inkscape:pageshadow="2"
     inkscape:window-width="1920"
     inkscape:window-height="1127"
     id="namedview12"
     showgrid="false"
     inkscape:zoom="63.401657"
     inkscape:cx="10.58332"
     inkscape:cy="4.0491532"
     inkscape:window-x="0"
     inkscape:window-y="0"
     inkscape:window-maximized="1"
     inkscape:current-layer="svg10"
     inkscape:snap-bbox="true"
     inkscape:bbox-nodes="true"
     inkscape:snap-page="true"
     showguides="false" />
  <rect
     style="fill:#000000;stroke-width:10;fill-opacity:1"
     id="rect859"
     width="21.166639"
     height="8.0036716"
     x="0"
     y="0" />
  <g
     fill="#FFFFFF"
     id="g8">
    <path
       d="M 0.068099,0.254324 H 2.545524 L 2.481794,6.169979 6.464318,0.254324 H 9.068472 L 5.119086,6.611378 C 4.864937,7.0205 4.606384,7.406766 4.18682,7.64467 3.67022,7.937608 3.32946,8.029713 2.62746,7.997601 2.015481,7.969671 1.468001,7.85861 0.994903,7.589239 0.365585,7.23097 0.067462,6.668164 0,6.036045 Z"
       id="path2" />
    <path
       d="m 11.59225,0.254311 h 2.52731 L 9.510675,7.749338 H 6.982997 Z"
       id="path4" />
    <path
       d="m 21.09857,7.749351 h -2.47743 l 0.0637,-5.915671 -3.98252,5.915671 h -2.60416 l 3.94939,-6.35707 c 0.25415,-0.409122 0.5127,-0.795371 0.93226,-1.033292 0.5166,-0.292938 0.85737,-0.385043 1.55937,-0.352914 0.61198,0.02793 1.15945,0.13899 1.63256,0.408345 0.62931,0.358269 0.92743,0.921075 0.9949,1.55321 z"
       id="path6" />
  </g>
</svg>
