<?xml version="1.0" encoding="UTF-8" standalone="no"?>
<svg
   xmlns:dc="http://purl.org/dc/elements/1.1/"
   xmlns:cc="http://creativecommons.org/ns#"
   xmlns:rdf="http://www.w3.org/1999/02/22-rdf-syntax-ns#"
   xmlns:svg="http://www.w3.org/2000/svg"
   xmlns="http://www.w3.org/2000/svg"
   xmlns:sodipodi="http://sodipodi.sourceforge.net/DTD/sodipodi-0.dtd"
   xmlns:inkscape="http://www.inkscape.org/namespaces/inkscape"
   width="200.09375pt"
   height="183.41425pt"
   viewBox="0 0 200.09374 183.41425"
   version="1.2"
   id="svg101"
   sodipodi:docname="logo_carnegie.svg"
   inkscape:version="1.0.1 (3bc2e813f5, 2020-09-07)">
  <metadata
     id="metadata105">
    <rdf:RDF>
      <cc:Work
         rdf:about="">
        <dc:format>image/svg+xml</dc:format>
        <dc:type
           rdf:resource="http://purl.org/dc/dcmitype/StillImage" />
        <dc:title></dc:title>
      </cc:Work>
    </rdf:RDF>
  </metadata>
  <sodipodi:namedview
     pagecolor="#ffffff"
     bordercolor="#666666"
     borderopacity="1"
     objecttolerance="10"
     gridtolerance="10"
     guidetolerance="10"
     inkscape:pageopacity="0"
     inkscape:pageshadow="2"
     inkscape:window-width="1920"
     inkscape:window-height="1007"
     id="namedview103"
     showgrid="false"
     fit-margin-top="0"
     fit-margin-left="0"
     fit-margin-right="0"
     fit-margin-bottom="0"
     inkscape:zoom="1.3526321"
     inkscape:cx="136.41376"
     inkscape:cy="232.13479"
     inkscape:window-x="0"
     inkscape:window-y="0"
     inkscape:window-maximized="1"
     inkscape:current-layer="svg101" />
  <defs
     id="defs26">
    <clipPath
       id="clip1">
      <path
         d="m 97,291 h 29 v 57.21094 H 97 Z m 0,0"
         id="path2" />
    </clipPath>
    <clipPath
       id="clip2">
      <path
         d="m 366,299 h 29.98047 v 49 H 366 Z m 0,0"
         id="path5" />
    </clipPath>
    <clipPath
       id="clip3">
      <path
         d="M 95,69 H 216 V 184 H 95 Z m 0,0"
         id="path8" />
    </clipPath>
    <clipPath
       id="clip4">
      <path
         d="m 295.77344,91.757812 c 0,50.624998 -44.79297,91.660158 -100.04688,91.660158 -55.2539,0 -100.046872,-41.03516 -100.046872,-91.660158 0,-50.621093 44.792972,-91.6601558 100.046872,-91.6601558 55.25391,0 100.04688,41.0390628 100.04688,91.6601558 z m 0,0"
         id="path11" />
    </clipPath>
    <clipPath
       id="clip5">
      <path
         d="m 103,82 h 101 v 93 H 103 Z m 0,0"
         id="path14" />
    </clipPath>
    <clipPath
       id="clip6">
      <path
         d="m 295.77344,91.757812 c 0,50.624998 -44.79297,91.660158 -100.04688,91.660158 -55.2539,0 -100.046872,-41.03516 -100.046872,-91.660158 0,-50.621093 44.792972,-91.6601558 100.046872,-91.6601558 55.25391,0 100.04688,41.0390628 100.04688,91.6601558 z m 0,0"
         id="path17" />
    </clipPath>
    <clipPath
       id="clip7">
      <path
         d="M 95,69 H 216 V 184 H 95 Z m 0,0"
         id="path20" />
    </clipPath>
    <clipPath
       id="clip8">
      <path
         d="m 295.77344,91.757812 c 0,50.624998 -44.79297,91.660158 -100.04688,91.660158 -55.2539,0 -100.046872,-41.03516 -100.046872,-91.660158 0,-50.621093 44.792972,-91.6601558 100.046872,-91.6601558 55.25391,0 100.04688,41.0390628 100.04688,91.6601558 z m 0,0"
         id="path23" />
    </clipPath>
  </defs>
  <path
     style="fill:#bf9159;fill-opacity:1;fill-rule:nonzero;stroke:none"
     d="m 125.65625,106.51953 c -0.64844,0.70703 -1.3125,1.39062 -1.94922,2.11328 -42.999995,6.01172 -87.453125,-23.624997 -122.769527,-4.45703 6.628902,44.74609 48.492182,79.23828 99.183587,79.23828 -5.015615,-35.78516 8.65625,-58.21875 25.71485,-76.87891 l -0.17968,-0.0156"
     id="path62" />
  <path
     style="fill:#23356e;fill-opacity:1;fill-rule:nonzero;stroke:none"
     d="M 100.11719,0 C 83.039065,0 66.964845,3.9140627 52.898435,10.816406 l 16.19141,5.09375 -17.36328,-2.816406 5.74609,11.558594 -7.9375,-10.539062 -5.13672,16.890624 2.875,-17.199218 c -27.99999,15.96875 -46.757808,44.25 -47.238276,76.582031 H 141.52734 c 17.75,-17.203125 34.33203,-33.492187 34.44141,-58.507813 C 157.61328,12.363282 130.45312,0 100.11719,0"
     id="path64" />
  <path
     style="fill:#ffffff;fill-opacity:1;fill-rule:nonzero;stroke:none"
     d="m 49.535155,14.113282 7.9375,10.539062 -5.74609,-11.558594 17.36328,2.816406 -16.19141,-5.09375 c -1.91406,0.941407 -3.78906,1.941407 -5.625,2.988282 l -2.875,17.199218 5.13672,-16.890624"
     id="path66" />
  <path
     style="fill:#ffffff;fill-opacity:1;fill-rule:nonzero;stroke:none"
     d="M 118.08984,51.710938 79.375005,49.683594 98.679685,28.140625 77.062505,47.511719 75.109375,8.7265627 73.128905,47.425782 51.539065,28.140625 l 19.28906,21.585938 -38.69922,1.984375 38.70313,1.996094 -19.29297,21.574218 21.57422,-19.292968 1.99609,38.703124 2,-38.707031 21.57031,19.296875 -19.27343,-21.617187 38.683595,-1.953125"
     id="path68" />
  <path
     style="fill:#ffffff;fill-opacity:1;fill-rule:nonzero;stroke:none"
     d="m 112.14453,20.386719 10.07422,-8.511719 -8.36328,10.019532 17.60156,1.199218 -17.53906,1.335938 8.30078,9.886718 -10.19141,-8.382812 -1.03125,17.625 -1.25781,-17.671875 -9.964845,8.429687 8.191405,-9.953124 L 90.531255,23.09375 108.15625,21.832032 99.773435,11.875 l 10.035155,8.617188 1.1875,-17.8593753 1.14844,17.7539063"
     id="path70" />
  <g
     clip-path="url(#clip3)"
     clip-rule="nonzero"
     id="g76"
     transform="translate(-95.679685,-0.00390625)">
    <g
       clip-path="url(#clip4)"
       clip-rule="nonzero"
       id="g74">
      <path
         style="fill:none;stroke:#ffffff;stroke-width:8.62253;stroke-linecap:butt;stroke-linejoin:miter;stroke-miterlimit:10;stroke-opacity:1"
         d="m 1468.3984,1805.9672 c -34.5703,64.3359 -48.9062,134.6484 -45.0781,203.5156 3.4766,-0.7812 6.875,-1.6797 10.3516,-2.2656 42.2265,-7.5 86.7969,-2.0313 126.4844,15.0391 37.6562,-67.461 94.4531,-125.625 166.3671,-165.4688 -3.6328,-2.0312 -7.3046,-4.1016 -11.0156,-6.0156 -38.0469,-19.8438 -79.0234,-33.8281 -121.0547,-41.3281 -41.6406,-7.461 -84.2578,-8.4766 -126.0547,-3.4766 z m -119.8437,325.0781 c -12.0313,14.1797 -20.3516,30.1563 -24.8047,47.8516 -4.4531,17.539 -4.8047,36.25 -0.9375,54.1797 3.8672,17.9297 11.875,35 23.3984,49.375 5.7422,7.2656 12.3829,13.789 19.6094,19.6875 6.9141,5.5859 14.4922,10.1172 22.6563,13.4765 16.25,6.7969 34.7656,8.75 52.5,5.4688 17.7343,-3.2422 34.6093,-11.7188 47.8515,-24.375 1.6797,-1.5625 3.2813,-3.2031 4.8438,-4.8828 l 2.3047,-2.6172 1.914,-2.3047 2.5391,-3.4375 1.5625,-2.2656 c 1.0937,-1.7188 2.2656,-3.5938 3.2812,-5.5469 4.0625,-7.6172 6.7969,-16.0156 7.9297,-24.7656 2.3438,-17.461 -1.9531,-35.9375 -11.8359,-50.9375 -4.9609,-7.5391 -11.1719,-14.1407 -18.7891,-19.6485 -6.4062,-4.5703 -14.8828,-8.3203 -23.3593,-9.6875 -17.1875,-3.0859 -36.0547,2.1875 -49.4922,14.2969 -1.6797,1.5234 -3.2813,3.125 -4.8047,4.8047 l -2.0703,2.4219 -1.2891,1.7187 -0.8203,1.1328 c -2.2656,3.2422 -4.3359,7.3047 -5.6641,11.3672 -2.7343,8.125 -3.125,17.2266 -1.0547,25.8594 2.0704,8.5937 6.7188,16.5625 13.1641,22.9687 1.6797,1.6797 3.1641,2.9297 5.2344,4.4532 1.3672,0.9765 3.4765,2.2656 5.3125,3.125 3.8672,1.914 8.0859,3.0859 12.4609,3.5156 8.711,0.8984 17.9297,-1.3672 25.3516,-6.5625 3.6719,-2.5 7.1094,-5.9375 9.6094,-9.4922 2.4218,-3.5156 4.0625,-7.7344 4.7656,-12.0703 1.4844,-8.75 -1.1719,-18.3203 -7.3047,-25.1953 -0.7422,-0.8985 -1.5625,-1.7188 -2.4219,-2.5 l -1.1719,-1.0547 -1.5625,-1.1719 c -1.5625,-1.1719 -3.6718,-2.2265 -5.7421,-3.0078 -4.1797,-1.4844 -8.8672,-1.7969 -13.3204,-0.9375 -8.9453,1.6406 -17.5781,9.0234 -18.9843,18.0859 -0.8594,4.5704 0.039,9.5313 2.3828,13.711 2.3828,4.1797 6.289,7.8125 10.7812,9.0625 4.6485,1.4062 9.961,0.7422 14.1797,-2.0313 4.336,-2.7343 7.3828,-7.3437 7.3828,-12.5 0.1172,-5.1172 -2.8125,-10.4687 -7.6172,-12.9687 -4.7656,-2.5391 -11.4453,-1.2891 -15.1171,3.2422 3.164,-4.8438 10.039,-7.1875 15.8203,-4.8438 5.7422,2.2656 9.8437,8.0469 10.4297,14.4141 1.1328,13.6328 -13.3985,24.1015 -26.6016,21.1328 -13.4766,-2.8906 -22.5391,-16.6016 -21.3281,-30.3516 1.1718,-14.2187 12.2265,-25.5078 25.4297,-29.414 6.6406,-1.9922 13.9062,-2.0703 20.7421,-0.2344 3.4375,0.9766 6.6407,2.2656 9.8438,4.2187 l 2.0312,1.2891 2.1875,1.6406 c 1.3282,1.0547 2.6563,2.1875 3.9063,3.3985 9.9609,9.5703 15.3906,23.8672 14.2187,38.0468 -2.539,29.5704 -30.5468,50.3125 -59.0234,49.6875 -7.1484,-0.1171 -14.2969,-1.5234 -21.0547,-4.1406 -3.4375,-1.3281 -6.4453,-2.7344 -9.8828,-4.9219 -2.7344,-1.6796 -5.8594,-3.8671 -8.4375,-6.0156 -10.7422,-8.9062 -18.8281,-21.2109 -23.125,-34.6875 -4.2969,-13.5156 -4.7266,-28.3203 -1.0547,-42.3047 1.875,-7.0312 4.5313,-13.5547 8.4375,-20.039 l 1.4844,-2.461 1.2109,-1.7968 c 1.2891,-1.875 2.1485,-2.9297 3.2422,-4.4141 2.1485,-2.7344 4.4531,-5.3516 6.875,-7.8906 19.5703,-20.1172 48.711,-30.7813 77.2266,-27.6563 14.375,1.5235 27.9297,6.0156 40.8594,14.0235 11.5234,7.2265 22.0703,16.914 30.5078,28.0859 17.0312,22.4219 25.2343,51.25 23.0859,79.6094 -1.1328,14.1797 -4.8047,28.2812 -10.8984,41.25 -1.4844,3.2812 -3.1641,6.3672 -5,9.5703 l -3.125,5.039 -2.3828,3.5938 -3.3594,4.5703 -3.2031,4.0625 c -2.1875,2.6953 -4.4922,5.2344 -6.875,7.7344 -19.0625,20.1562 -44.2579,34.6875 -71.4844,41.1328 -27.2266,6.5625 -56.5235,5.1562 -83.3203,-4.375 -13.3985,-4.7266 -26.1328,-11.4453 -37.6172,-19.7656 -11.0547,-8.0078 -21.2891,-17.3438 -30.2344,-27.8516 -0.8984,-1.0156 -1.7578,-2.1094 -2.6172,-3.2031 -39.7656,27.7344 -84.8828,40.9375 -129.6484,35.2734 22.4219,33.2813 51.4844,62.6172 84.2969,85.1172 32.3437,22.1094 70.0781,36.7578 109.1406,41.6406 39.0625,5.0782 79.375,0.7422 116.5234,-12.4218 37.2656,-12.9688 71.3281,-34.8438 98.5547,-63.5547 6.7188,-7.0313 13.4375,-14.961 19.0234,-22.4219 l 2.5391,-3.4375 1.875,-2.6953 c 1.2109,-1.6406 2.6172,-3.8281 3.8672,-5.7813 2.6172,-3.9843 5,-8.0859 7.3047,-12.2656 9.0234,-16.6797 15.664,-34.6484 19.6094,-53.2812 7.8515,-37.2657 4.375,-77.1094 -9.9219,-112.6563 -7.1094,-17.8516 -16.9141,-34.4922 -28.8281,-49.5703 -6.0157,-7.5391 -12.5391,-14.6094 -19.6094,-21.2109 -3.5156,-3.3204 -7.1875,-6.4454 -10.9375,-9.5313 l -2.8516,-2.2266 -3.0078,-2.3046 c -2.1094,-1.4844 -3.2812,-2.3829 -5.4297,-3.8282 -30.4687,-20.7812 -68.8672,-29.4922 -105.8594,-24.1406 -37.0703,4.9609 -72.1093,24.1406 -96.4062,53.3203 z m -85.5078,116.2891 c -3.711,-14.6094 -5.5469,-29.6875 -5.5469,-44.8047 -48.0078,8.3203 -97.8906,3.4375 -144.1016,-16.1328 0.9375,17.8125 3.2422,35.5859 7.1094,52.9687 5.7031,26.0938 14.6094,51.3672 26.3672,75.2735 3.5547,1.4843 7.1484,3.0078 10.8594,4.2578 44.5703,14.8437 90.9765,9.5703 133.2422,-11.4453 -12.8516,-18.086 -22.4219,-38.5547 -27.9297,-60.1172 z m 388.9844,-155.1172 c 16.5625,19.6484 30.039,41.8359 40.3515,65.3906 71.4844,-47.6172 156.9922,-74.8828 247.6563,-74.5703 -29.8828,-59.1406 -70.2344,-112.6562 -118.75,-156.875 -16.1328,-14.8047 -33.2422,-28.4766 -50.8985,-41.3672 -0.1953,-0.1562 -0.3906,-0.3125 -0.625,-0.4297 -79.2187,31.5625 -143.9843,83.75 -190.1562,147.4219 4.1406,2.2656 8.2031,4.6484 12.2265,7.1875 2.6954,1.7188 6.25,4.1406 8.8282,5.9375 l 3.9453,2.8516 3.9844,2.9687 c 5.2734,4.0625 10.4687,8.2813 15.4296,12.7344 10,8.8672 19.4141,18.4766 28.0079,28.75 z m 92.8125,-295.2344 c 21.3671,12.1485 41.7968,25.8594 60.9765,40.9375 19.0625,14.8828 36.9922,31.1719 53.9844,48.2813 67.9687,68.5937 118.5937,153.5156 146.0547,244.8828 27.1484,91.4844 32.2265,188.8281 13.6328,281.0547 -9.2578,46.0547 -24.0234,90.8593 -44.0234,132.9297 -20.2344,41.914 -45.2344,81.3671 -74.7657,116.7187 51.5235,-76.3672 84.7266,-163.7891 95.625,-253.3984 11.0157,-89.5313 0.9375,-180.9375 -29.9218,-264.2188 -1.211,-3.3594 -2.6563,-6.6015 -3.9454,-9.9609 -3.0859,-0.3906 -6.1718,-0.8203 -9.2968,-1.1719 -90.2735,-9.4531 -176.9532,8.8281 -251.7969,47.8125 14.6484,44.1406 18.0469,92.0313 9.2578,138.0469 -5.0391,26.4844 -14.0234,52.3047 -26.7187,76.2109 -3.2032,5.9375 -6.5235,11.7969 -10.1563,17.5781 -1.8359,2.8516 -3.4766,5.5079 -5.625,8.5547 l -3.0469,4.4141 -2.539,3.5156 c -8.086,11.0547 -16.211,20.7813 -25.2344,30.5078 -35.7422,38.5157 -80.8984,68.2813 -130.3906,86.1328 -49.4922,17.8907 -103.2032,23.7891 -155.4688,17.2657 -52.3047,-6.5235 -102.9687,-25.6641 -146.6015,-55.4688 -42.5782,-29.4531 -78.8672,-66.5625 -107.3438,-109.4922 -28.3984,-42.8125 -48.6328,-90.9765 -59.0625,-141.1718 -3.5156,-16.4063 -5.8203,-33.0469 -7.1875,-49.7266 32.9688,-73.6719 76.0547,-142.5391 127.7734,-205.1172 -0.1953,0.3125 -0.4296,0.625 -0.625,0.9766 -20.7421,35.3125 -34.9609,74.2968 -41.4453,114.6484 -1.875,11.6016 -3.0078,23.3594 -3.5937,35.1172 45.039,26.6797 95.2344,37.8906 144.7265,35 0.625,-7.7734 1.6797,-15.5469 3.3204,-23.2031 4.0625,-19.375 11.6406,-38.2422 21.7968,-55.3125 -39.1797,-46.1719 -64.6875,-103.4375 -71.4843,-165.7813 10.8593,-11.0937 21.9531,-21.9531 33.3593,-32.539 -4.4922,67.539 13.2422,131.3281 47.0313,184.6875 1.5234,-2.1094 3.0469,-4.2188 4.6094,-6.211 26.6406,-34.6094 64.2968,-60.625 106.1328,-74.375 -12.1875,-65.9765 -7.6563,-134.9219 15.625,-200.1562 -25.1563,6.0937 -49.7657,14.375 -73.3594,24.8437 -15.2734,6.7578 -29.9609,14.6094 -44.2578,23.2031 63.8672,-50.9375 134.8828,-94.4921 211.4453,-129.414 31.9922,0.5859 63.8672,4.1797 95.0391,10.9375 48.2812,10.4297 94.8046,28.2422 137.5,52.4609 z m 0,0"
         transform="matrix(0.1,0,0,-0.1,0,348.21)"
         id="path72" />
    </g>
  </g>
  <g
     clip-path="url(#clip5)"
     clip-rule="nonzero"
     id="g82"
     transform="translate(-95.679685,-0.00390625)">
    <g
       clip-path="url(#clip6)"
       clip-rule="nonzero"
       id="g80">
      <path
         style="fill:#ffffff;fill-opacity:1;fill-rule:nonzero;stroke:none"
         d="m 146.83984,167.61328 c -3.45703,-6.43359 -4.89062,-13.46484 -4.50781,-20.35156 0.34766,0.0781 0.6875,0.16797 1.03516,0.22656 4.22265,0.75 8.67968,0.20313 12.64843,-1.50391 3.76563,6.7461 9.44922,12.5625 16.63672,16.54688 -0.36328,0.20312 -0.73047,0.41016 -1.09765,0.60156 -3.8086,1.98438 -7.90625,3.38281 -12.10938,4.13281 -4.16406,0.7461 -8.42578,0.84766 -12.60547,0.34766 z m -11.98437,-32.50781 c -1.20313,-1.41797 -2.03516,-3.01563 -2.48047,-4.78516 -0.44531,-1.7539 -0.48047,-3.625 -0.0937,-5.41797 0.38672,-1.79296 1.1875,-3.5 2.33984,-4.9375 0.57422,-0.72656 1.23828,-1.3789 1.96094,-1.96875 0.69141,-0.55859 1.44922,-1.01171 2.26563,-1.34765 1.625,-0.67969 3.47656,-0.875 5.25,-0.54688 1.77343,0.32422 3.46093,1.17188 4.78515,2.4375 0.16797,0.15625 0.32813,0.32032 0.48438,0.48828 l 0.23047,0.26172 0.1914,0.23047 0.25391,0.34375 0.15625,0.22656 c 0.10937,0.17188 0.22656,0.35938 0.32812,0.55469 0.40625,0.76172 0.67969,1.60156 0.79297,2.47656 0.23438,1.7461 -0.19531,3.59375 -1.18359,5.09375 -0.4961,0.75391 -1.11719,1.41407 -1.87891,1.96485 -0.64062,0.45703 -1.48828,0.83203 -2.33594,0.96875 -1.71875,0.30859 -3.60546,-0.21875 -4.94921,-1.42969 -0.16797,-0.15234 -0.32813,-0.3125 -0.48047,-0.48047 l -0.20703,-0.24219 -0.12891,-0.17187 -0.082,-0.11328 c -0.22656,-0.32422 -0.4336,-0.73047 -0.56641,-1.13672 -0.27344,-0.8125 -0.3125,-1.72266 -0.10547,-2.58594 0.20703,-0.85937 0.67188,-1.65625 1.31641,-2.29687 0.16797,-0.16797 0.31641,-0.29297 0.52344,-0.44532 0.13672,-0.0977 0.34765,-0.22656 0.53125,-0.3125 0.38672,-0.1914 0.80859,-0.30859 1.24609,-0.35156 0.87109,-0.0898 1.79297,0.13672 2.53516,0.65625 0.36718,0.25 0.71093,0.59375 0.96093,0.94922 0.24219,0.35156 0.40625,0.77344 0.47657,1.20703 0.14843,0.875 -0.11719,1.83203 -0.73047,2.51953 -0.0742,0.0898 -0.15625,0.17188 -0.24219,0.25 l -0.11719,0.10547 -0.15625,0.11719 c -0.15625,0.11719 -0.36718,0.22266 -0.57422,0.30078 -0.41796,0.14844 -0.88671,0.17969 -1.33203,0.0937 -0.89453,-0.16406 -1.75781,-0.90234 -1.89843,-1.80859 -0.0859,-0.45703 0.004,-0.95313 0.23828,-1.3711 0.23828,-0.41797 0.6289,-0.78125 1.07812,-0.90625 0.46485,-0.14062 0.9961,-0.0742 1.41797,0.20313 0.43359,0.27344 0.73828,0.73437 0.73828,1.25 0.0117,0.51172 -0.28125,1.04687 -0.76172,1.29687 -0.47656,0.25391 -1.14453,0.12891 -1.51172,-0.32422 0.31641,0.48438 1.00391,0.71875 1.58204,0.48438 0.57421,-0.22656 0.98437,-0.80469 1.04296,-1.44141 0.11329,-1.36328 -1.33984,-2.41015 -2.66015,-2.11328 -1.34766,0.28906 -2.25391,1.66016 -2.13281,3.03516 0.11718,1.42187 1.22265,2.55078 2.54296,2.9414 0.66407,0.19922 1.39063,0.20703 2.07422,0.0234 0.34375,-0.0977 0.66407,-0.22656 0.98438,-0.42187 l 0.20312,-0.12891 0.21875,-0.16406 c 0.13282,-0.10547 0.26563,-0.21875 0.39063,-0.33985 0.99609,-0.95703 1.53906,-2.38671 1.42187,-3.80468 -0.2539,-2.95703 -3.05468,-5.03125 -5.90234,-4.96875 -0.71484,0.0117 -1.42969,0.15234 -2.10547,0.41406 -0.34375,0.13281 -0.64453,0.27344 -0.98828,0.49219 -0.27344,0.16797 -0.58594,0.38672 -0.84375,0.60156 -1.07422,0.89062 -1.88281,2.12109 -2.3125,3.46875 -0.42969,1.35156 -0.47266,2.83203 -0.10547,4.23047 0.1875,0.70312 0.45313,1.35547 0.84375,2.0039 l 0.14844,0.2461 0.12109,0.17968 c 0.12891,0.1875 0.21485,0.29297 0.32422,0.44141 0.21484,0.27344 0.44531,0.53516 0.6875,0.78906 1.95703,2.01172 4.87109,3.07813 7.72266,2.76563 1.4375,-0.15235 2.79297,-0.60156 4.08593,-1.40235 1.15235,-0.72265 2.20704,-1.6914 3.05079,-2.80859 1.70312,-2.24219 2.52343,-5.125 2.30859,-7.96094 -0.11328,-1.41796 -0.48047,-2.82812 -1.08984,-4.125 -0.14844,-0.32812 -0.31641,-0.63671 -0.5,-0.95703 l -0.3125,-0.5039 -0.23829,-0.35938 -0.33593,-0.45703 -0.32032,-0.40625 c -0.21875,-0.26953 -0.44921,-0.52344 -0.6875,-0.77344 -1.90625,-2.01562 -4.42578,-3.46875 -7.14843,-4.11328 -2.72266,-0.65625 -5.65235,-0.51562 -8.33203,0.4375 -1.33985,0.47266 -2.61329,1.14453 -3.76172,1.97656 -1.10547,0.80079 -2.12891,1.73438 -3.02344,2.78516 -0.0898,0.10156 -0.17578,0.21094 -0.26172,0.32031 -3.97656,-2.77343 -8.48828,-4.09375 -12.96484,-3.52734 2.24219,-3.32813 5.14844,-6.26172 8.42969,-8.51172 3.23437,-2.21094 7.00781,-3.67578 10.91406,-4.16406 3.90625,-0.507815 7.9375,-0.0742 11.65234,1.24219 3.72656,1.29687 7.13281,3.48437 9.85547,6.35546 0.67187,0.70313 1.34375,1.4961 1.90234,2.24219 l 0.25391,0.34375 0.1875,0.26953 c 0.12109,0.16407 0.26172,0.38282 0.38672,0.57813 0.26172,0.39844 0.5,0.80859 0.73047,1.22656 0.90234,1.66797 1.5664,3.46484 1.96093,5.32813 0.78907,3.72656 0.4375,7.71093 -0.99218,11.26562 -0.71094,1.78516 -1.69141,3.44922 -2.88282,4.95703 -0.60156,0.75391 -1.2539,1.46094 -1.96093,2.12109 -0.35157,0.33204 -0.71875,0.64454 -1.09375,0.95313 l -0.28516,0.22266 -0.30078,0.23046 c -0.21094,0.14844 -0.32813,0.23829 -0.54297,0.38282 -3.04687,2.07812 -6.88672,2.94922 -10.58594,2.41406 -3.70703,-0.49609 -7.21093,-2.41406 -9.64062,-5.33203 z m -8.55078,-11.62891 c -0.3711,1.46094 -0.55469,2.96875 -0.55469,4.48047 -4.80078,-0.83203 -9.78906,-0.34375 -14.41016,1.61328 0.0937,-1.78125 0.32422,-3.55859 0.71094,-5.29687 0.57031,-2.60938 1.46094,-5.13672 2.63672,-7.52735 0.35547,-0.14843 0.71484,-0.30078 1.08594,-0.42578 4.45703,-1.48437 9.09765,-0.95703 13.32422,1.14453 -1.28516,1.8086 -2.24219,3.85547 -2.79297,6.01172 z m 38.89843,15.51172 c 1.65625,-1.96484 3.00391,-4.18359 4.03516,-6.53906 7.14844,4.76172 15.69922,7.48828 24.76563,7.45703 -2.98829,5.91406 -7.02344,11.26562 -11.875,15.6875 -1.61329,1.48047 -3.32422,2.84766 -5.08985,4.13672 -0.0195,0.0156 -0.0391,0.0312 -0.0625,0.043 -7.92187,-3.15625 -14.39844,-8.375 -19.01562,-14.74219 0.41406,-0.22656 0.82031,-0.46484 1.22265,-0.71875 0.26953,-0.17188 0.625,-0.41406 0.88282,-0.59375 l 0.39453,-0.28516 0.39843,-0.29687 c 0.52735,-0.40625 1.04688,-0.82813 1.54297,-1.27344 1,-0.88672 1.94141,-1.84766 2.80078,-2.875 z m 9.28125,29.52344 c 2.13672,-1.21485 4.17969,-2.58594 6.09766,-4.09375 1.90625,-1.48828 3.69922,-3.11719 5.39844,-4.82813 6.79687,-6.85937 11.85937,-15.35156 14.60547,-24.48828 2.71484,-9.14843 3.22265,-18.88281 1.36328,-28.10547 -0.92578,-4.60546 -2.40235,-9.085934 -4.39844,-13.292965 -2.02734,-4.191406 -4.52734,-8.136719 -7.48047,-11.671875 5.15625,7.636719 8.47266,16.378906 9.5625,25.33984 1.10156,8.95313 0.0937,18.09375 -2.99219,26.42188 -0.12109,0.33594 -0.26562,0.66015 -0.39453,0.99609 -0.30859,0.0391 -0.61718,0.082 -0.92968,0.11719 -9.02735,0.94531 -17.69532,-0.88281 -25.17969,-4.78125 1.46484,-4.41406 1.80469,-9.20312 0.92578,-13.80469 -0.50391,-2.64843 -1.40234,-5.23047 -2.67188,-7.62109 -0.32031,-0.59375 -0.65234,-1.17969 -1.01562,-1.75781 -0.18359,-0.28516 -0.34766,-0.55078 -0.5625,-0.85547 l -0.30469,-0.44141 -0.25,-0.35156 c -0.8125,-1.10547 -1.625,-2.07813 -2.52734,-3.05078 -3.57422,-3.851565 -8.08985,-6.828128 -13.03906,-8.613284 -4.94922,-1.789062 -10.32032,-2.378906 -15.54688,-1.726562 -5.23047,0.652344 -10.29687,2.566406 -14.66015,5.546875 -4.25782,2.945311 -7.88672,6.656251 -10.73438,10.949221 -2.83984,4.28125 -4.86328,9.09765 -5.90625,14.11719 -0.35156,1.64062 -0.58203,3.30468 -0.71875,4.97265 3.29688,7.36719 7.60547,14.25391 12.77734,20.51172 -0.0195,-0.0312 -0.043,-0.0625 -0.0625,-0.0977 -2.07421,-3.53125 -3.49609,-7.42968 -4.14453,-11.46484 -0.1875,-1.16016 -0.30078,-2.33594 -0.35937,-3.51172 4.5039,-2.66797 9.52344,-3.78906 14.47265,-3.5 0.0625,0.77734 0.16797,1.55469 0.33204,2.32031 0.40625,1.9375 1.16406,3.82422 2.17968,5.53125 -3.91797,4.61719 -6.46875,10.34375 -7.14843,16.57813 1.08593,1.10937 2.19531,2.19531 3.33593,3.2539 -0.44922,-6.7539 1.32422,-13.13281 4.70313,-18.46875 0.15234,0.21094 0.30468,0.42188 0.46093,0.6211 2.66407,3.46094 6.42969,6.0625 10.61329,7.4375 -1.21875,6.59765 -0.76563,13.49219 1.5625,20.01562 -2.51563,-0.60937 -4.97657,-1.4375 -7.33594,-2.48437 -1.52735,-0.67578 -2.9961,-1.46094 -4.42578,-2.32031 6.38672,5.09375 13.48828,9.44921 21.14453,12.9414 3.19922,-0.0586 6.38672,-0.41797 9.5039,-1.09375 4.82813,-1.04297 9.48438,-2.82422 13.75,-5.24609"
         id="path78" />
    </g>
  </g>
  <g
     clip-path="url(#clip7)"
     clip-rule="nonzero"
     id="g88"
     transform="translate(-95.679685,-0.00390625)">
    <g
       clip-path="url(#clip8)"
       clip-rule="nonzero"
       id="g86">
      <path
         style="fill:none;stroke:#ffffff;stroke-width:8.62253;stroke-linecap:butt;stroke-linejoin:miter;stroke-miterlimit:10;stroke-opacity:1"
         d="m 1468.3984,1805.9672 c -34.5703,64.3359 -48.9062,134.6484 -45.0781,203.5156 3.4766,-0.7812 6.875,-1.6797 10.3516,-2.2656 42.2265,-7.5 86.7969,-2.0313 126.4844,15.0391 37.6562,-67.461 94.4921,-125.625 166.3671,-165.4688 -3.6328,-2.0312 -7.3046,-4.1016 -10.9765,-6.0156 -38.086,-19.8438 -79.0625,-33.8281 -121.0938,-41.3281 -41.6406,-7.461 -84.2578,-8.4766 -126.0547,-3.4766 z m -119.8437,325.0781 c -12.0313,14.1797 -20.3516,30.1563 -24.8047,47.8516 -4.4531,17.539 -4.8047,36.25 -0.9375,54.1797 3.8672,17.9297 11.875,35 23.3984,49.375 5.7422,7.2656 12.3829,13.789 19.6094,19.6875 6.9141,5.5859 14.4922,10.1172 22.6563,13.4765 16.25,6.7969 34.7656,8.75 52.5,5.4688 17.7343,-3.2422 34.6093,-11.7188 47.8515,-24.375 1.6797,-1.5625 3.2813,-3.2031 4.8438,-4.8828 l 2.3047,-2.6172 1.914,-2.3047 2.5391,-3.4375 1.5625,-2.2656 c 1.0937,-1.7188 2.2656,-3.5938 3.2812,-5.5469 4.0625,-7.6172 6.7969,-16.0156 7.9297,-24.7656 2.3438,-17.461 -1.9531,-35.9375 -11.8359,-50.9375 -4.9609,-7.5391 -11.1719,-14.1407 -18.7891,-19.6485 -6.4062,-4.5703 -14.8828,-8.3203 -23.3593,-9.6875 -17.1875,-3.0859 -36.0547,2.1875 -49.4922,14.2969 -1.6797,1.5234 -3.2813,3.125 -4.8047,4.8047 l -2.0703,2.4219 -1.2891,1.7187 -0.8203,1.1328 c -2.2656,3.2422 -4.3359,7.3047 -5.6641,11.3672 -2.7343,8.125 -3.125,17.2266 -1.0547,25.8594 2.0704,8.5937 6.7188,16.5625 13.1641,22.9687 1.6797,1.6797 3.1641,2.9297 5.2344,4.4532 1.3672,0.9765 3.4765,2.2656 5.3125,3.125 3.8672,1.914 8.0859,3.0859 12.4609,3.5156 8.711,0.8984 17.9297,-1.3672 25.3516,-6.5625 3.6719,-2.5 7.1094,-5.9375 9.6094,-9.4922 2.4218,-3.5156 4.0625,-7.7344 4.7656,-12.0703 1.4844,-8.75 -1.1719,-18.3203 -7.3047,-25.1953 -0.7422,-0.8985 -1.5625,-1.7188 -2.4219,-2.5 l -1.1719,-1.0547 -1.5625,-1.1719 c -1.5625,-1.1719 -3.6718,-2.2265 -5.7421,-3.0078 -4.1797,-1.4844 -8.8672,-1.7969 -13.3204,-0.9375 -8.9453,1.6406 -17.5781,9.0234 -18.9843,18.0859 -0.8594,4.5704 0.039,9.5313 2.3828,13.711 2.3828,4.1797 6.289,7.8125 10.7812,9.0625 4.6485,1.4062 9.961,0.7422 14.1797,-2.0313 4.336,-2.7343 7.3828,-7.3437 7.3828,-12.5 0.1172,-5.1172 -2.8125,-10.4687 -7.6172,-12.9687 -4.7656,-2.5391 -11.4453,-1.2891 -15.1171,3.2422 3.164,-4.8438 10.039,-7.1875 15.8203,-4.8438 5.7422,2.2656 9.8437,8.0469 10.4297,14.4141 1.1328,13.6328 -13.3985,24.1015 -26.6016,21.1328 -13.4766,-2.8906 -22.5391,-16.6016 -21.3281,-30.3516 1.1718,-14.2187 12.2265,-25.5078 25.4297,-29.414 6.6406,-1.9922 13.9062,-2.0703 20.7421,-0.2344 3.4375,0.9766 6.6407,2.2656 9.8438,4.2187 l 2.0312,1.2891 2.1875,1.6406 c 1.3282,1.0547 2.6563,2.1875 3.9063,3.3985 9.9609,9.5703 15.3906,23.8672 14.2187,38.0468 -2.539,29.5704 -30.5468,50.3125 -59.0234,49.6875 -7.1484,-0.1171 -14.2969,-1.5234 -21.0547,-4.1406 -3.4375,-1.3281 -6.4453,-2.7344 -9.8828,-4.9219 -2.7344,-1.6796 -5.8594,-3.8671 -8.4375,-6.0156 -10.7422,-8.9062 -18.8281,-21.2109 -23.125,-34.6875 -4.2969,-13.5156 -4.7266,-28.3203 -1.0547,-42.3047 1.875,-7.0312 4.5313,-13.5547 8.4375,-20.039 l 1.4844,-2.461 1.2109,-1.7968 c 1.2891,-1.875 2.1485,-2.9297 3.2422,-4.4141 2.1485,-2.7344 4.4531,-5.3516 6.875,-7.8906 19.5703,-20.1172 48.711,-30.7813 77.2266,-27.6563 14.375,1.5235 27.9297,6.0156 40.8594,14.0235 11.5234,7.2265 22.0703,16.914 30.5078,28.0859 17.0312,22.4219 25.2343,51.25 23.0859,79.6094 -1.1328,14.1797 -4.8047,28.2812 -10.8984,41.25 -1.4844,3.2812 -3.1641,6.3672 -5,9.5703 l -3.125,5.039 -2.3828,3.5938 -3.3594,4.5703 -3.2031,4.0625 c -2.1875,2.6953 -4.4922,5.2344 -6.875,7.7344 -19.0625,20.1562 -44.2579,34.6875 -71.4844,41.1328 -27.2266,6.5625 -56.5235,5.1562 -83.3203,-4.375 -13.3985,-4.7266 -26.1328,-11.4453 -37.6172,-19.7656 -11.0547,-8.0078 -21.2891,-17.3438 -30.2344,-27.8516 -0.8984,-1.0156 -1.7578,-2.1094 -2.6172,-3.2031 -39.7656,27.7344 -84.8828,40.9375 -129.6484,35.2734 22.4219,33.2813 51.4844,62.6172 84.2969,85.1172 32.3437,22.1094 70.0781,36.7578 109.1406,41.6406 39.0625,5.0782 79.375,0.7422 116.5234,-12.4218 37.2656,-12.9688 71.3281,-34.8438 98.5547,-63.5547 6.7188,-7.0313 13.4375,-14.961 19.0234,-22.4219 l 2.5391,-3.4375 1.875,-2.6953 c 1.2109,-1.6406 2.6172,-3.8281 3.8672,-5.7813 2.6172,-3.9843 5,-8.0859 7.3047,-12.2656 9.0234,-16.6797 15.664,-34.6484 19.6094,-53.2812 7.8906,-37.2657 4.375,-77.1094 -9.9219,-112.6563 -7.1094,-17.8516 -16.9141,-34.4922 -28.8281,-49.5703 -6.0157,-7.5391 -12.5391,-14.6094 -19.6094,-21.2109 -3.5156,-3.3204 -7.1875,-6.4454 -10.9375,-9.5313 l -2.8516,-2.2266 -3.0078,-2.3046 c -2.1094,-1.4844 -3.2812,-2.3829 -5.4297,-3.8282 -30.4687,-20.7812 -68.8672,-29.4922 -105.8594,-24.1406 -37.0703,4.9609 -72.1093,24.1406 -96.4062,53.3203 z m -85.5078,116.2891 c -3.711,-14.6094 -5.5469,-29.6875 -5.5469,-44.8047 -48.0078,8.3203 -97.8906,3.4375 -144.1016,-16.1328 0.9375,17.8125 3.2422,35.5859 7.1094,52.9687 5.7031,26.0938 14.6094,51.3672 26.3672,75.2735 3.5547,1.4843 7.1484,3.0078 10.8594,4.2578 44.5703,14.8437 90.9765,9.5703 133.2422,-11.4453 -12.8516,-18.086 -22.4219,-38.5547 -27.9297,-60.1172 z m 388.9844,-155.1172 c 16.5625,19.6484 30.039,41.8359 40.3515,65.3906 71.4844,-47.6172 156.9922,-74.8828 247.6563,-74.5703 -29.8828,-59.1406 -70.2344,-112.6562 -118.75,-156.875 -16.1328,-14.8047 -33.2422,-28.4766 -50.8985,-41.3672 -0.1953,-0.1562 -0.3906,-0.3125 -0.625,-0.4297 -79.2187,31.5625 -143.9843,83.75 -190.1562,147.4219 4.1406,2.2656 8.2031,4.6484 12.2265,7.1875 2.6954,1.7188 6.25,4.1406 8.8282,5.9375 l 3.9453,2.8516 3.9844,2.9687 c 5.2734,4.0625 10.4687,8.2813 15.4296,12.7344 10,8.8672 19.4141,18.4766 28.0079,28.75 z m 92.8125,-295.2344 c 21.3671,12.1485 41.7968,25.8594 60.9765,40.9375 19.0625,14.8828 36.9922,31.1719 53.9844,48.2813 67.9687,68.5937 118.5937,153.5156 146.0547,244.8828 27.1484,91.4844 32.2265,188.8281 13.6328,281.0547 -9.2578,46.0547 -24.0234,90.8593 -43.9844,132.9297 -20.2734,41.914 -45.2734,81.3671 -74.8047,116.7187 51.5625,-76.3672 84.7266,-163.7891 95.625,-253.3984 11.0157,-89.5313 0.9375,-180.9375 -29.9218,-264.2188 -1.211,-3.3594 -2.6563,-6.6015 -3.9454,-9.9609 -3.0859,-0.3906 -6.1718,-0.8203 -9.2968,-1.1719 -90.2735,-9.4531 -176.9532,8.8281 -251.7969,47.8125 14.6484,44.1406 18.0469,92.0313 9.2578,138.0469 -5.0391,26.4844 -14.0234,52.3047 -26.7187,76.2109 -3.2032,5.9375 -6.5235,11.7969 -10.1563,17.5781 -1.8359,2.8516 -3.4766,5.5079 -5.625,8.5547 l -3.0469,4.4141 -2.5,3.5156 c -8.125,11.0547 -16.25,20.7813 -25.2734,30.5078 -35.7422,38.5157 -80.8984,68.2813 -130.3906,86.1328 -49.4922,17.8907 -103.2032,23.7891 -155.4688,17.2657 -52.3047,-6.5235 -102.9687,-25.6641 -146.6015,-55.4688 -42.5782,-29.4531 -78.8672,-66.5625 -107.3438,-109.4922 -28.3984,-42.8125 -48.6328,-90.9765 -59.0625,-141.1718 -3.5156,-16.4063 -5.8203,-33.0469 -7.1875,-49.7266 32.9688,-73.6719 76.0547,-142.5391 127.7734,-205.1172 -0.1953,0.3125 -0.4296,0.625 -0.625,0.9766 -20.7421,35.3125 -34.9609,74.2968 -41.4453,114.6484 -1.875,11.6016 -3.0078,23.3594 -3.5937,35.1172 45.039,26.6797 95.2344,37.8906 144.7265,35 0.625,-7.7734 1.6797,-15.5469 3.3204,-23.2031 4.0625,-19.375 11.6406,-38.2422 21.7968,-55.3125 -39.1797,-46.1719 -64.6875,-103.4375 -71.4843,-165.7813 10.8593,-11.0937 21.9531,-21.9531 33.3593,-32.539 -4.4922,67.539 13.2422,131.3281 47.0313,184.6875 1.5234,-2.1094 3.0469,-4.2188 4.6094,-6.211 26.6406,-34.6094 64.2968,-60.625 106.1328,-74.375 -12.1875,-65.9765 -7.6563,-134.9219 15.625,-200.1562 -25.1563,6.0937 -49.7657,14.375 -73.3594,24.8437 -15.2734,6.7578 -29.9609,14.6094 -44.2578,23.2031 63.8672,-50.9375 134.8828,-94.4921 211.4453,-129.414 31.9922,0.5859 63.8672,4.1797 95.0391,10.9375 48.2812,10.4297 94.8437,28.2422 137.5,52.4609 z m 0,0"
         transform="matrix(0.1,0,0,-0.1,0,348.21)"
         id="path84" />
    </g>
  </g>
  <path
     style="fill:#ffffff;fill-opacity:1;fill-rule:nonzero;stroke:none"
     d="m 123.70703,108.63281 c 3.15235,-3.55859 6.44531,-6.96484 9.78125,-10.292966 C 87.023435,111.22656 37.273435,72.617188 0.74219,102.75781 c 0.0625,0.47266 0.125,0.94922 0.195313,1.41797 35.316402,-19.167967 79.769532,10.46875 122.769527,4.45703"
     id="path90" />
  <path
     style="fill:#8acf3a;fill-opacity:1;fill-rule:evenodd;stroke:none"
     d="m 99.664065,183.40625 c 0.15234,0 0.30469,0.008 0.457025,0.008 45.51564,0 83.92969,-27.8086 96.09766,-65.87891 -27.76563,41.35938 -65.67188,32.41016 -96.554685,65.8711"
     id="path92" />
  <path
     style="fill:#8acf3a;fill-opacity:1;fill-rule:evenodd;stroke:none"
     d="m 200.09375,86.796875 c -0.69141,-11.863281 -3.84766,-23.121093 -9.00391,-33.363281 0.082,61.699216 -76.99609,70.128906 -91.01562,129.613276 19.01953,-36.51953 96.42968,-45.89453 100.01953,-96.249995"
     id="path94" />
  <path
     style="fill:#8acf3a;fill-opacity:1;fill-rule:evenodd;stroke:none"
     d="m 180.58593,37.210938 c -1.46875,-1.816406 -3.00781,-3.578125 -4.61718,-5.285156 -0.20313,57.488281 -87.421875,68.855468 -75.89453,151.121088 7.25,-61.67578 103.27734,-86.60937 80.51171,-145.835932"
     id="path96" />
  <path
     style="fill:#68bacf;fill-opacity:1;fill-rule:nonzero;stroke:none"
     d="m 133.48828,98.339844 c 5.625,-5.605469 11.36328,-10.980469 16.73047,-16.414062 C 99.078125,94.972656 34.898435,49.167969 0.410159,88.179688 0.351569,88.246098 0.289065,88.304688 0.230471,88.375 0.179691,88.42187 0.136721,88.47266 0.08594,88.515625 0.04688,89.59375 0,90.667969 0,91.753906 c 0,3.726563 0.269531,7.390626 0.742187,11.003904 36.531248,-30.140622 86.281248,8.46875 132.746093,-4.417966"
     id="path98" />
</svg>
